<?xml version="1.0" standalone="no"?>
<!DOCTYPE svg PUBLIC "-//W3C//DTD SVG 20010904//EN"
 "http://www.w3.org/TR/2001/REC-SVG-20010904/DTD/svg10.dtd">
<svg version="1.0" xmlns="http://www.w3.org/2000/svg"
 width="16.000000pt" height="16.000000pt" viewBox="0 0 16.000000 16.000000"
 preserveAspectRatio="xMidYMid meet">
<metadata>
Created by potrace 1.11, written by Peter Selinger 2001-2013
</metadata>
<g transform="translate(0.000000,16.000000) scale(0.006400,-0.006400)"
fill="#000000" stroke="none">
<path d="M1509 2286 c-2 -2 -33 -7 -69 -11 -36 -3 -76 -8 -90 -10 -14 -2 -54
-7 -90 -10 -36 -4 -72 -9 -80 -10 -8 -2 -42 -6 -75 -9 -33 -4 -78 -9 -100 -13
-22 -3 -51 -7 -65 -8 -14 -2 -27 -3 -29 -4 -3 -1 32 -36 77 -80 45 -43 82 -87
82 -97 1 -11 1 -425 1 -921 l0 -902 224 76 224 76 46 -42 c83 -77 182 -109
326 -105 264 6 470 164 563 430 69 197 57 512 -28 694 -39 85 -56 110 -121
175 -93 93 -183 131 -321 134 -181 4 -320 -75 -414 -235 l-35 -60 1 455 c0
251 -2 462 -4 469 -4 12 -15 16 -23 8z m317 -877 c40 -12 98 -68 124 -119 40
-78 60 -200 61 -365 2 -310 -62 -495 -193 -559 -82 -40 -199 -34 -259 13 l-24
19 0 455 0 456 25 26 c76 82 164 106 266 74z"/>
<path d="M428 1903 c-97 -109 -192 -215 -211 -235 l-36 -38 -90 0 -91 0 0 -30
0 -30 75 0 75 0 1 -37 c0 -21 0 -252 0 -513 0 -503 4 -552 48 -643 37 -77 121
-136 217 -154 74 -13 206 -5 268 16 124 44 215 146 241 271 l7 35 -31 -36
c-84 -100 -212 -94 -264 11 -22 45 -22 50 -24 548 l-1 502 174 0 174 0 0 30 0
30 -174 0 -175 0 2 235 c1 129 -1 235 -4 235 -3 0 -84 -89 -181 -197z"/>
</g>
</svg>
