<svg id="Layer_1" xmlns="http://www.w3.org/2000/svg" viewBox="0 0 400 400">
  <style>
    .st0{fill:#C09459;}
  </style>
  <path class="st0" d="M-279.5 496.2c.3 0 .7 0 .9.1 8.9 3.3 18 6.2 26.8 9.9 16.2 6.7 28.9 17.7 39 31.9 8.5 11.9 15 24.8 20.1 38.6 4.6 12.4 9.4 24.8 14.4 37.1 4.1 10 9.2 19.5 15.7 28.2 3 3.9 6.3 7.5 10.1 10.5 4.4 3.4 9.2 5.6 14.8 6.3 3.1.4 6.1.1 9-.7 9.1-2.3 17.2-6.5 23.2-14 4.7-5.8 7.2-12.6 8.7-19.8 1.4-6.5 2-13.1 2-19.8.1-9.6.1-19.2.2-28.8.1-8.2.3-16.5 2.1-24.6.9-4.1 2.1-8 4-11.8 3.8-7.9 9.9-13.2 18-16.3 5.3-2 10.8-3 16.3-3.8 7-1 14-1.8 20.7-3.9 2-.6 3.9-1.4 5.8-2.3 5.7-2.9 8.8-7.7 10.5-13.6.8-2.6 1.2-5.3 2.1-7.9 1.1-3.3 2.3-6.7 3.9-9.8 2.9-5.6 7.7-9.2 13.4-11.4 3.6-1.4 7.4-2.6 11.2-3.6 4.9-1.2 8.7-3.9 11.8-7.8 3.6-4.7 5.7-10 6.4-15.8 1.4-10.6-.8-20.4-7.8-28.8-1.9-2.3-4.2-4.4-6.7-6.1-8.9-6.2-16.5-13.6-23.3-22-6.4-7.9-12.9-15.7-19.5-23.4-6-7-12.8-13.2-19.9-19-7.6-6.3-16.3-9.6-26.1-10.2-9.2-.6-18.1 1.3-27 3.2-5.1 1.1-10.2 2.1-15.3 2.9-1.8.3-3.7 0-5.4-.4-2.9-.6-4.7-2.6-5.7-5.3-1.3-3.6-.9-7.1.4-10.5 1.9-5.2 5.3-9.5 9.3-13.2 13.2-12.4 28.6-21.1 46.2-25.9 3.6-1 7.4-1.6 11.1-1.3 2 .2 4.2.5 6 1.5 5.1 2.9 10.6 4.4 16.2 5.7 6.8 1.6 13.7 3.1 20.5 4.8 4.1 1.1 8 2.8 11.6 5.1 3.3 2.1 6.3 4.6 8.7 7.8 7.7 10.6 17.8 18.3 29.3 24.3 7.4 3.9 15.2 6.7 23.5 8 5.7.9 11.4 1.1 17.2-.1 14.7-3.1 28.7-.5 42.3 5.5 11 4.9 21.2 11.3 30.7 18.7 8.4 6.5 17.8 10.3 27.9 12.7 8.8 2.1 17.8 3.2 26.8 3.5 14.4.6 28.6-.6 42.5-4.4 5.7-1.6 11.2-3.7 16.5-6.4 11.6-5.9 19.1-15.1 23.4-27.3 5.1-14.5 4.8-29 .2-43.5-2.6-8.1-6.3-15.7-10.5-23.1-1.3-2.2-2.5-4.5-3.8-6.7-3.1-5-3.7-10.5-3-16.2.7-5.3 2.4-10.3 3.8-15.3 1.4-4.9 2.8-9.8 3.9-14.8 1.8-8.7 0-16.6-5.5-23.7-3.8-4.9-8.1-9.3-13-13.1-8.5-6.6-17-13.3-25.9-19.4-15.3-10.3-24.7-24.8-30.6-41.8-1.1-3.2-2.2-6.4-3-9.6-2.3-9.6-7.6-17-15.6-22.6-3.4-2.4-7-4.5-10.6-6.6-5.4-3.1-10.4-6.7-14.6-11.5-6.5-7.5-10-16.3-11.5-26-1.1-7.1-2.8-14-6.1-20.4-5-9.8-12.8-16.7-23-20.8-5.9-2.4-12-4.3-18.1-6.3-5.7-1.9-11.3-3.9-16.6-6.8-11.6-6.5-19.9-16-25.2-28-2.7-6.2-5.1-12.6-7.7-18.9-8.5-21.6-23.9-36.6-45.2-45.7-6.7-2.9-13.7-4.2-21-4.2-5.6 0-11 1-16.1 3.1-14.5 5.9-29.7 9.5-45.1 11.8-14.4 2.2-28.9 3.5-43.4 4.9-13 1.3-26.1 2.4-39 4.7-5.5 1-11 2.2-16.2 4.2-11.6 4.4-18.9 12.7-22.4 24.5-2.1 7.1-2.9 14.4-3.4 21.8-.2 3.4-.4 6.9-.8 10.3-.7 5.6-3.9 9.5-8.7 12.2-3.8 2.2-8 3.3-12.3 3.8-3.2.3-6.4.3-9.6.5-4.4.3-8.8.7-13.2.9-10.8.5-21.4-.5-31.8-3.7v-1.9c3.4.8 6.8 1.8 10.3 2.4 7.2 1.4 14.4 1.7 21.7 1.3 6.9-.4 13.9-.8 20.8-1.2 3.9-.2 7.7-1.2 11.3-2.8 6.3-2.9 9.4-7.8 9.9-14.7.4-6.1.8-12.1 1.5-18.2.7-6.5 2.3-12.7 5.2-18.6 3.8-7.7 9.6-13.3 17.3-16.9 6.1-2.9 12.6-4.5 19.3-5.6 12-2.1 24.1-3.2 36.2-4.4 15.8-1.5 31.5-2.8 47.2-5.3 15.2-2.4 30.1-5.9 44.4-11.7 10.2-4.1 20.6-4.1 31.1-1.4C9.8-99.1 20.9-92 30.7-82.8c10 9.3 16.7 20.7 21.4 33.4 2.2 5.8 4.5 11.6 7.2 17.2C65.9-18.4 76.6-8.9 90.8-3.5c6.1 2.3 12.4 4.2 18.6 6.3s12.1 4.6 17.5 8.3c9.6 6.8 15.3 16.1 18.2 27.3 1 3.9 1.7 8 2.4 12 2.6 14 9.8 24.8 21.9 32.3 3.4 2.1 6.9 4.1 10.3 6.2 4.1 2.5 7.8 5.7 11.1 9.1 4.2 4.4 6.5 9.8 8.1 15.6 2.3 8.2 5.1 16.2 8.9 23.7 5 9.8 11.5 18.4 20.6 24.9 8 5.8 15.9 11.6 23.7 17.5 5.6 4.2 11 8.7 15.8 14 3.6 4 6.8 8.3 8.6 13.5 2.2 6.3 1.8 12.6.3 18.9-1.4 5.7-3.1 11.2-4.7 16.8-1.3 4.5-2.5 9.1-2.6 13.9-.1 4 .9 7.7 2.9 11.2 3.1 5.6 6.3 11.2 9.1 16.9 4.6 9.1 7.8 18.8 8.8 29 1.6 16.5-2 31.8-12.1 45.2-3.8 5.1-8.9 8.7-14.4 11.7-8.9 4.9-18.5 7.8-28.5 9.6-9.7 1.8-19.5 2.5-29.4 2.2-14.2-.4-28.2-2.2-41.7-7-6-2.1-11.5-5.1-16.6-9-9.4-7.2-19.3-13.7-30.1-18.6-7.2-3.3-14.6-5.8-22.4-6.7-5.9-.7-11.8-.8-17.7.4-8.7 1.9-17.3 1.6-25.9-.7-18.3-4.9-33.9-14.4-46.1-29.1-1.4-1.7-2.6-3.4-4.1-5-4.7-5.1-10.7-8.2-17.2-10-6.8-1.9-13.8-3.3-20.8-4.9-5.7-1.3-11.3-2.9-16.4-5.8-2.9-1.7-6.2-1.5-9.4-1.1-5.8.6-11.3 2.3-16.6 4.5-12.6 5.1-24.1 11.9-34 21.1-3.3 3.1-6.2 6.5-8.4 10.4-1.2 2.3-2.1 4.6-2.4 7.2-.7 6.2 2.9 10 9.2 9.6 5.3-.4 10.4-1.7 15.5-2.9 6.8-1.5 13.6-2.9 20.6-3.3 13.3-.8 25.1 2.6 35.3 11.4 10.9 9.3 20.8 19.6 29.8 30.8 5.2 6.5 10.5 12.9 16 19.1 4.3 5 9.4 9.1 14.9 12.8 9 6.1 14.5 14.6 16.1 25.3 1.5 10.9-.3 21.1-7.5 29.8-3 3.7-6.9 6.1-11.5 7.3-3.9 1-7.8 2.3-11.6 3.7-7.5 3-12.5 8.4-15 16.1-1 3.2-1.8 6.5-2.6 9.7-1.3 4.8-3.1 9.4-6.8 13-2.5 2.4-5.4 4-8.5 5.2-5.4 2.1-11.1 2.9-16.8 3.9-5.5.9-11.1 1.7-16.5 2.8-14.5 3-23.2 12.1-26.6 26.3-1.8 7.2-2.4 14.5-2.4 21.9-.1 9.4 0 18.9-.1 28.3-.2 8.6-.5 17.1-2.3 25.5-1.8 8.5-4.9 16.5-11.2 22.7-8.1 8.1-17.8 12.6-29.3 13-6.4.2-12-2.2-17.2-5.9-5.7-4.1-10.2-9.4-14.2-15.2-6.1-8.9-11-18.6-15-28.6-4.8-12-9.3-24.2-13.9-36.3-5.4-14.2-12.5-27.5-21.8-39.5-10.3-13.3-23.3-23-39-28.9-7.5-2.8-15-5.4-22.6-8.1-.2-.1-.5-.1-.7-.1.1-.3.1-.9.1-1.5zm505.4-775.7c-1.8 8.5-2.4 17.1-1.9 25.8.4 6.7 1.8 13.3 4.1 19.7 2.6 7.4 5.3 14.7 7.6 22.2 1.1 3.7 1.8 7.6 2.1 11.5.5 7.6-2.5 13.9-8 19-7.8 7.2-14.2 15.4-19.1 24.8-4.8 9.4-7.7 19.3-7.5 29.9.3 14.3 5.1 27.1 14.1 38.2 6.1 7.6 14.3 12 23.5 14.4 5.6 1.5 11.4 2.5 17 3.9 3.6.9 7.1 1.9 10.5 3.4 2.8 1.2 5.3 2.9 7.8 4.7 6.3 4.7 12.4 9.6 18.7 14.3 7.2 5.4 14.5 10.8 21.1 17 5.3 5 10.1 10.3 13.7 16.6 3 5.3 4.7 11 4.5 17.2-.1 4-1.1 7.7-2.7 11.4-3.6 8.5-8.4 16.4-13.7 23.9-5.9 8.4-12.1 16.7-17.9 25.3-2.9 4.3-5.5 8.8-8 13.4-4.8 8.9-6.6 18.4-4.9 28.5 1.9 11.2 5 22 10.6 31.9 7.2 12.7 16.9 23 29.8 29.8 11.7 6.2 18.3 15.9 21.5 28.3 1.8 6.8 2.7 13.8 3.4 20.8.9 9.6 1.5 19.1 2.5 28.7.7 6.9 2.1 13.7 4.7 20.3 4.3 10.9 12.1 17.9 23.5 20.7 7.7 1.8 15.5 3 23.5 2.9 10.3-.2 19.6-3.1 27.2-10.2 8.8-8.2 14-18.2 14.7-30.3.3-5.4.4-10.9.6-16.3.5-11.8.8-23.6 1.5-35.5.4-7.5 1.6-14.9 3.9-22.2 3.5-11.5 10.2-20.9 19-28.9 2.7-2.4 5.5-4.7 8.4-6.8 10.2-7.7 19.3-16.6 26.1-27.5 3.7-6 6.2-12.4 7.4-19.4 1.3-8.1 4.4-15.5 8.4-22.6 1.8-3.2 3.6-6.4 5.3-9.7 3.2-6.2 4.2-12.9 3.4-19.8-.7-6.1-3.8-10.9-8.3-14.9-4.7-4.1-10-7.1-15.7-9.6-9.5-4.2-19.4-7-29.4-9.6-2.6-.7-5.3-1.4-7.9-2-9-2.2-16.1-7.3-21.9-14.3-7-8.4-11.1-18.1-11.6-29.1-.2-4.9.9-9.7 3-14.2 3.4-7.4 6.9-14.8 10-22.3 3.6-8.5 6.5-17.2 8.2-26.3.9-5.1 1.4-10.3.6-15.5-1.7-10.6-8.1-16.9-18.2-19.8-6.3-1.8-12.7-1.1-19 .2-9.8 2.1-19.1 5.8-28.3 9.7-7.2 3-14.6 5.6-22.3 7.1-8.2 1.6-16.5 2-24.8.5-14.3-2.6-24-10.9-29.8-24.1-3.2-7.3-4.1-14.9-3-22.8.6-4.2 1.1-8.4 1.7-12.6.8-6.1-.1-11.9-2.3-17.6-3-7.9-5.4-16-7.1-24.4-2.2-10.8-3.1-21.7-1.7-32.7 1-7.9 3.4-15.4 7.3-22.5.5-.8.9-1.7 1.3-2.6h2.4c-1.7 3.4-3.5 6.6-5 10.1-3.2 7.7-4.5 15.8-4.7 24.1-.3 13.4 2.5 26.2 6.5 38.8.9 3 2 5.9 3.1 8.8 2.6 7.1 2.9 14.3 1.8 21.7-.7 4.9-1.4 9.8-1.7 14.8-.4 6.6 1.6 12.6 4.5 18.4 7.3 14.4 19.5 20.8 35.2 21.3 12.1.4 23.6-2.5 34.8-7 8.5-3.5 17-7.1 25.8-9.6 6.3-1.8 12.6-3 19.2-2.7 7.3.3 13.7 2.7 19.1 7.8 4.4 4.2 6.7 9.4 7.4 15.4.8 6.9-.2 13.6-1.7 20.2-2.7 11.6-7.3 22.5-12.2 33.3-1.5 3.2-2.9 6.4-4.5 9.5-3.9 7.5-4.4 15.3-2.2 23.3 3.2 11.7 9.5 21.2 19.6 28.1 3.6 2.5 7.6 4 11.8 5.1 10 2.5 20 5.1 29.7 8.6 5.8 2.1 11.5 4.5 16.7 7.9 3 2 5.9 4.2 8.5 6.6 6 5.7 7.8 12.9 7.4 21-.3 6.1-2.2 11.6-5 16.8-1.9 3.5-3.9 7-5.8 10.5-3.1 5.8-5.4 12-6.4 18.5-1.7 10.7-6.5 19.8-13.1 28.2-6.3 8-13.7 14.7-21.9 20.7-9.1 6.7-16.8 14.6-22 24.7-3.4 6.5-5.4 13.5-6.5 20.7-1.3 8.1-1.8 16.4-2 24.6-.3 10.5-.6 20.9-.9 31.4-.1 3.7-.5 7.3-.9 11-1.5 12.8-12.2 29.1-27.2 34.7-6.3 2.3-12.9 3.2-19.6 2.8-7.1-.4-14.2-1.3-21.1-3.1-11.5-2.9-19.4-10.1-23.9-21-2.4-5.7-3.9-11.7-4.6-17.8-1-8.7-1.7-17.5-2.5-26.3-.8-9.4-1.6-18.8-4.3-27.9-2.1-7.2-5.3-14-11-19.1-2.2-2-4.6-3.8-7.2-5.2-23.3-12.9-37-32.8-42.3-58.7-.9-4.4-1.5-9-1.8-13.5-.3-5 .8-9.8 2.5-14.6 2.4-6.8 5.9-13.1 10-19 5.4-7.8 10.9-15.4 16.4-23.1 5.7-8 11.1-16.2 15.3-25.2 2-4.4 3.6-8.9 3.7-13.8 0-4.4-1-8.6-2.8-12.5-2.5-5.5-6.1-10.1-10.2-14.5-7.1-7.5-15.2-13.6-23.4-19.8C289-49.9 282-55.3 275-60.8c-4.2-3.3-8.9-5.4-14-6.7-6.2-1.5-12.5-2.8-18.7-4.3-9.2-2.3-17.5-6.2-24.1-13.1-5-5.2-8.7-11.3-11.5-17.8-3.7-8.6-5.5-17.5-5.2-26.9.4-9.1 2.8-17.8 6.8-26 4.9-10.1 11.6-18.9 19.8-26.6 4.5-4.2 7.6-9 8.1-15.3.2-3.4-.2-6.7-1-10-1.7-7.7-4.5-15-7.3-22.3-2.4-6.5-4.4-13-5.1-19.9-.8-7.8-.7-15.5.4-23.2.3-2.2.8-4.4 1.1-6.6h1.6z"/>
  <path class="st0" d="M647.4 680.5c-2.2-9.3-6-17.9-11-25.9-9.1-14.8-21.3-26.8-35.6-36.5-5.1-3.5-10.6-6.5-16.1-9.6-9.6-5.4-18.6-11.6-26.5-19.3-11.1-10.8-18.9-23.5-21.5-39-1.1-6.7-1.2-13.4-.5-20.1.5-4.5 1.3-9 1.7-13.5.8-8.4-3.3-13.2-8.9-16.1-4.6-2.4-9.6-3.3-14.8-3.8-7.8-.7-15.6-.1-23.4.7-8.6.9-17.1.5-25-3.8-5.3-2.9-9.7-6.8-13.5-11.4-3.9-4.6-7.7-9.4-11.5-14.2-3.2-4.1-7.1-7.4-11.8-9.6-4-1.8-8.1-2.9-12.5-3.2-10.5-.8-20.5 1.8-30.2 5.5-3.9 1.5-7.8 3.4-11.6 5.2-6.9 3.3-14.1 5.3-21.7 5.1-6.2-.2-12.2-1.6-17.9-4-7.2-3-14.3-6.3-21.4-9.7-6.3-3-12.8-5.5-19.8-6.1-16.8-1.5-31.4 3.2-43.4 15.4-.8.8-1.5 1.7-2.1 2.6-1.2 1.8-1.2 3.3.4 4.7 1.5 1.3 3.1 2.5 4.9 3.3 5 2.4 10.4 3.7 15.8 4.9 10.9 2.4 22 4 33.1 5.4 9.3 1.1 18.6 2 27.8 3.4 16.3 2.5 31.3 8.2 44.6 18.2 6.8 5.1 12.4 11.3 16.1 19.1 2.6 5.5 4.2 11.2 3.6 17.4-.5 4.9-2.1 9.3-4.5 13.6-5.9 10.6-14 19.2-24.5 25.4-2.4 1.4-5.3 2.3-7.9 3.3-.7.3-1.6.3-2.4.4-4.8.2-7.7-2.3-8.2-7.1-.3-3.1.1-6.2.8-9.3 1.2-4.6 2.3-9.1 2.7-13.9 1.5-16.2-4.2-29.2-17.4-38.7-8.4-6-18-9.4-28.2-10.8-7.8-1.1-15.7-1.7-23.6-2.5-15-1.5-30-3.3-44.6-7.7-6.6-2-13-4.5-18.9-8.1-7.4-4.5-13.1-10.4-16.2-18.7-3.3-8.8-1.7-16.6 5-23.3 3.7-3.7 8-6.4 12.4-9 3-1.8 6.1-3.5 9.1-5.4 1.2-.8 2.3-1.7 3.3-2.8 1.1-1.2.9-2.3-.7-2.8-2.3-.7-4.8-1.4-7.2-1.4-7.1-.1-14.2 0-21.3.2-6.5.2-12.9.6-19.4.9-7 .3-13.9.5-20.8-.1-2.8-.3-5.6-.1-8.3.9-1.5.6-3.1 1.4-4.3 2.4-2.2 1.8-2.9 4.3-2.3 7.2.8 3.6 2.9 6.5 5.8 8.5 2.6 1.9 5.5 3.5 8.5 4.9 6.7 3.3 12.9 7.3 18 12.9 4.9 5.3 8.3 11.4 8.9 18.7.2 2.3.1 4.7-.3 6.9-1.3 7.5 1.3 13.5 6.6 18.6 4.1 4 9 6.6 14.2 8.7 7.3 2.9 14.8 4.4 22.6 4.8 9.3.4 18.7.8 28 1.5 11.9.9 23.6 3 34.7 7.9 10.9 4.8 19.5 12.2 24.8 23 3.3 6.7 5.2 13.9 6 21.4 1.7 15.9-1.8 31-7.9 45.6-3 7.2-6.6 14-10.9 20.5-1.2 1.8-2.5 3.5-3.9 5.1-8.8 9.6-15.3 20.4-19 32.9h-1.9c2.6-10 7.3-18.9 13.5-27.1 1.9-2.5 4.3-4.8 6.1-7.4 2.6-3.6 5.2-7.3 7.5-11.1 6.8-11.7 11.7-24.2 13.9-37.6 1.9-11 1.5-22-1.7-32.8-4.3-14.6-13.6-24.9-27.5-31.1-8.1-3.6-16.7-5.5-25.4-6.7-10-1.3-20.1-1.7-30.1-2.1-8.1-.3-16.1-.6-23.9-3.2-6.3-2.1-12.3-4.5-17.6-8.6-3.5-2.7-6.5-5.9-8.4-10-1.8-3.9-2.4-8-1.6-12.2 1.3-7-.2-13.3-3.9-19.2-3.2-5.1-7.4-9.2-12.5-12.5-3.5-2.3-7.3-4.3-11.1-6.2-3.4-1.8-6.8-3.6-9.3-6.6-1.3-1.6-2.5-3.3-3.3-5.2-2.4-5.6-.1-11 5.5-13.5 3.1-1.3 6.3-1.7 9.6-1.6 4.5.1 9 .5 13.4.4 8.8-.2 17.6-.8 26.4-1.1 8.1-.2 16.1-.3 24.2-.2 2.2 0 4.4.6 6.5 1.4 2.8 1 3.4 3.4 1.5 5.7-1.2 1.4-2.6 2.6-4.2 3.5-3.1 2-6.4 3.6-9.5 5.6-3.5 2.3-7.1 4.7-10.3 7.4-3.5 2.9-5.9 6.7-6.8 11.3-.5 2.9-.3 5.7.5 8.5 2.4 8.5 7.9 14.7 15.2 19.4 7 4.5 14.7 7.3 22.7 9.5 9.6 2.6 19.4 4.2 29.2 5.3 10.9 1.2 21.8 2.1 32.7 3.4 11.9 1.4 23 5 32.7 12.2 11.5 8.6 17.4 20.1 17.5 34.6 0 6.1-1.1 11.9-2.6 17.7-.7 2.7-1.2 5.5-1.3 8.3-.2 6 2.9 8.4 8.7 6.9 2.3-.6 4.6-1.5 6.6-2.7 11.5-6.8 20.3-16.2 25.9-28.4 2.2-4.9 3.3-10 2.4-15.4-.9-5.5-3-10.6-6.1-15.3-4.6-6.9-10.6-12.4-17.6-16.8-12.3-7.8-25.7-12.6-40-14.6-9.2-1.3-18.4-2.2-27.6-3.3-13.4-1.7-26.8-3.5-39.8-7.2-3.4-1-6.6-2.3-9.8-3.7-1.4-.6-2.7-1.5-3.8-2.5-2.9-2.5-3.2-5.2-.8-8.2 1.4-1.8 3-3.6 4.7-5.1 8-7.1 17.4-11.3 27.9-12.9 11.9-1.8 23.2.2 34 5.6 8.1 4.1 16.3 8.2 25 11.1 5.4 1.8 11 3 16.7 2.8 6.2-.2 12-1.8 17.6-4.4 3.8-1.8 7.7-3.6 11.6-5.2 8.7-3.6 17.7-6.1 27.2-6.3 12.3-.3 22.8 3.6 30.6 13.6 3.2 4 6.2 8.1 9.6 12 2.9 3.3 6 6.5 9.3 9.3 6.3 5.3 13.7 7.9 21.9 7.7 6.4-.1 12.8-.9 19.1-1.2 7.6-.4 15.2.1 22.6 2.3 3.8 1.1 7.3 2.8 10.1 5.7 3.8 3.8 5.3 8.5 4.8 13.8-.4 4.6-1.2 9.2-1.8 13.8-2.4 20.3 3.1 38.1 16.9 53.3 8.1 8.9 17.7 15.9 28 22 6 3.5 12.2 6.7 18 10.6 14.5 9.7 26.8 21.7 36.3 36.5 5.2 8.2 9.1 16.9 11.6 26.2.2.6.2 1.2.4 1.9-.7.2-1.3.2-1.9.2zm-460.8-960c-.8 4.4-1.7 8.8-2.2 13.2-.8 6.4-1.3 12.9-1 19.4.3 6.2 1.2 12.2 3.6 18 3.3 7.6 3.9 15.8 3.5 24-.7 14.3-4.6 27.7-11.7 40.1-3.3 5.8-6 11.8-7.6 18.3-2.5 10.1-1.6 20 1.5 29.8 1.9 5.9 4.4 11.5 7.5 16.8 7.8 13.3 13.3 27.5 17.8 42.1 3.8 12.4 6.7 25 8.5 37.9 1.5 10.7 2.3 21.5 1.5 32.3-.4 5.1-1.4 10.1-2 15.2-.6 4.4-1 8.7-.3 13.1.6 3.7 2 6.9 4.6 9.5 1 1 2 2.1 3.1 3 7.6 5.9 14 12.9 19.9 20.4 3.5 4.5 7 9 10.1 13.7 5.5 8.4 7.1 17.8 6.3 27.8-.3 3.5-.4 7-.3 10.5.2 6.7 3.3 12.1 7.8 16.8 4.4 4.5 9.5 8.1 14.8 11.4 9.2 5.7 18.2 11.6 26.5 18.5 6.4 5.4 12.2 11.3 16.9 18.3 6.3 9.5 9.3 19.9 8.4 31.4-.4 4.2-1.1 8.4-1.6 12.6-1.3 10.2-2.2 20.5-1.6 30.9.2 4.1 1 8.2 1.8 12.3.6 3.4 2 6.6 3.8 9.5 1.2 2 1.8 4.2 1.2 6.4-.9 3.3-1.7 6.7-3 9.8-3.2 7.6-6.7 15-10 22.6-2.7 6.4-4.9 13-5.7 20-1 9.7 2.1 17.4 10.4 22.9 6.9 4.6 14.5 7 22.8 7 7.2 0 14.1-1.7 20.7-4.4 10.9-4.5 20.3-11.1 28.8-19.1 2.4-2.2 4.6-4.6 6.8-7.1 5.4-6 11.7-11.1 18.1-16.1 9-7 18.1-13.8 26.9-20.9s16.8-15 23.4-24.3c3.6-5.2 6.7-10.7 9.1-16.6 3.3-8.1 4-16.4 2.9-24.9-1.1-8.8-2.3-17.6-3.3-26.4-2.3-20.3 2.5-38.7 14.5-55.3 8.6-12 19-22 31.7-29.5 6.1-3.6 12.5-6.5 19.6-7.4 6.9-.9 13.6-.2 19.8 3 9.2 4.7 13.2 13.7 10.6 23.7-1.1 4.4-3.2 8.3-5.8 12-5.1 7.3-11.3 13.5-18 19.2-4.5 3.8-9 7.5-13.2 11.5-7 6.5-9.5 14.6-8.5 24.1.8 7.1 2.7 13.8 4.8 20.5 1.1 3.6 2.2 7.2 3 10.9 1.7 8.1.1 15.7-3.4 23.1-1.6 3.3-3 6.7-3.9 10.3-1.9 7.3.6 12.9 7 16.8 1.2.7 2.4 1.3 3.6 1.9 5.3 2.4 10.9 3.7 16.5 4.8 2 .4 4.1.7 6.1 1.2 6.8 1.6 12.3 5.2 16.6 10.7 3.8 4.7 6.6 10 9.5 15.3 5.6 10.4 11.7 20.6 19 29.9 6.9 8.7 14.6 16.5 24.1 22.5 9.2 5.7 19.1 9.2 29.9 10.4 6.1.7 12.2 1.8 18.2 2.8 1.1.2 2.2.6 3.2.9v1.9c-5.8-1.7-11.8-2.9-17.9-3.3-22.1-1.6-39.7-11.6-54.1-28-8.2-9.4-15.1-19.7-21.1-30.5l-8.1-14.4c-.7-1.2-1.5-2.3-2.2-3.4-5.1-7.6-12.1-12-21.2-13.5-5.3-.9-10.4-2.3-15.6-3.8-2.7-.8-5.2-2.1-7.6-3.5-7.4-4.4-10-10.6-7.9-19 .8-3.2 2.1-6.2 3.4-9.2 1.7-3.7 3.3-7.5 4-11.5 1.1-5.6.3-11.1-1.3-16.6-1.7-5.8-3.6-11.6-5.1-17.5-1.2-4.5-1.7-9.1-1.8-13.8-.1-7.6 2.5-14.1 7.7-19.6 2.8-2.9 5.9-5.6 9-8.3 5.8-4.9 11.7-9.7 16.8-15.4 4-4.4 7.7-9 10.3-14.4 1.5-3.1 2.5-6.3 2.7-9.7.3-7-2.7-12.4-8.5-16.1-6.1-3.9-13-4.8-20.1-4-5.9.7-11.3 2.8-16.4 5.7-19.3 10.9-33.9 26.2-43.1 46.5-4.5 10-5.9 20.5-5.5 31.4.3 9.7 1.6 19.3 3.2 28.8 1.8 11.4 1.2 22.4-3.8 33.1-3.4 7.1-7.5 13.8-12.5 19.8-7.7 9.2-16.6 17.1-26 24.4-8.5 6.6-17.1 13.1-25.7 19.8-5 3.9-9.5 8.3-13.8 13-9.2 10.2-19.9 18.5-32.5 24.2-7.4 3.3-15.1 5.4-23.2 5.5-10.7.1-20.3-3.2-28.5-10.2-5.7-5-7.8-11.5-7.6-18.9.2-6.5 1.8-12.7 4.2-18.6 2.8-7 6-13.8 8.9-20.7 1.7-4 3.3-8 4.8-12 .6-1.5.9-3.1 1-4.7.1-1.3-.1-2.8-.8-3.9-4.6-7.7-5.9-16.1-6.2-24.8-.4-11.5.8-23 2.3-34.4.4-3.4.9-6.8 1.1-10.2.4-9.9-2.5-18.9-7.9-27.2-5-7.6-11.4-13.8-18.4-19.5-7.9-6.4-16.4-12-25-17.4-5-3.1-9.7-6.5-13.9-10.5-7.1-6.7-10.2-14.7-9.3-24.4.2-2.5.3-4.9.5-7.4.5-8.8-1.3-17-6.1-24.5-2.4-3.7-5-7.3-7.7-10.7-6.6-8.4-13.5-16.6-22.2-23.2-.5-.4-1-.8-1.4-1.3-4.9-4.2-7-9.6-7.1-15.9-.1-5.4.6-10.7 1.6-16 1.6-8.6 1.7-17.3 1.1-26.1-1.3-20-5.6-39.4-11.8-58.4-4-12.3-8.9-24.2-15.4-35.3-4.3-7.3-7.6-15-9.5-23.2-3-12.7-1.5-24.9 3.9-36.7 1.3-2.9 2.9-5.7 4.4-8.5 7.9-14.5 11.7-30 10.8-46.6-.3-5-1.1-9.9-3.2-14.5-2.6-5.7-3.6-11.8-3.9-17.9-.4-10.9.7-21.7 2.7-32.4.1-.5.3-.9.5-1.4 1.1-.2 1.7-.2 2.4-.2z"/>
  <path class="st0" d="M258.6-279.5c-3.1 7.2-6.1 14.4-8 22-2 7.8-3 15.7-2.6 23.7.3 4.7 1.5 9.1 2.7 13.6 1.4 4.9 2.9 9.8 3.9 14.8 1.8 8.2.7 16.4-1.6 24.4-2.1 7.3-5.8 13.8-9.3 20.5-3.2 5.8-6.2 11.7-9 17.8-1.3 2.8-2 5.9-2.6 8.9-1.3 6.5.4 12.4 4.1 17.7 2.6 3.8 5.9 7 9.4 9.9 5.8 4.7 12.1 8.6 18.6 12.3 10.2 5.8 19.9 12.1 28.6 20 5 4.5 9.3 9.6 13.7 14.7 2.2 2.6 4.6 5.2 7.1 7.5 4.5 4.3 10 7.1 15.8 9.3 6.6 2.4 12.9 5.3 18.8 9 6.5 4.1 12.3 8.9 17 15 9 12 10 24.7 3.6 38.1-3.5 7.3-8.3 13.7-13.5 19.7-6.3 7.4-13 14.6-19.3 22-4.8 5.6-9.4 11.3-13.8 17.2-3.6 4.9-6.5 10.3-8.2 16.2-2.3 7.8-.8 14.9 3.9 21.3 3.9 5.3 9.1 9 14.9 11.9 5.3 2.6 10.7 5 16.1 7.5 5.2 2.4 10.2 5.1 14.2 9.2 3.9 3.9 6.1 8.7 6.3 14.1.2 6.6-.1 13.3-.1 19.9 0 10.1-.1 20.1.1 30.2.1 6.8 1 13.5 2.5 20.2 1.3 6 3.2 11.7 6.3 17 6.8 11.8 17.3 17.2 30.7 17 6.4-.1 11.3-3.1 14.1-9.1 2.5-5.2 3.2-10.7 3.4-16.3.3-9.1-.7-18-1.8-27-.8-6.4-1.8-12.9-1.9-19.3-.3-14.9 3.2-29 9.3-42.5 3.3-7.3 7.4-14.2 13.3-19.8 1.8-1.7 3.7-3.3 5.8-4.6 9.1-6 17.9-12.3 25.9-19.8 7-6.6 13.4-13.7 18-22.3 3.8-6.9 5.8-14.3 6-22.2.1-4.3.1-8.6-.7-12.9-.8-3.8-2.8-6.8-6.3-8.6-2.6-1.4-5.3-2.5-8.1-3.6-9.6-3.9-19.2-7.5-28.7-11.6-8.1-3.5-15.8-7.8-22.9-13-5.3-3.9-10.1-8.3-13.9-13.8-4.2-6.1-6.6-12.8-7.2-20.1-.7-8.1-.4-16.1-.2-24.2.2-7.5 0-15-1.7-22.4-3.3-14.5-12.6-22.7-26.8-25.8-6.7-1.4-13.5-1.4-20.3-1.2-6.7.2-13.5.3-20-1.3-2.1-.5-4.2-1.2-6.1-2.2-10.5-5.5-20.7-11.5-29.8-19.2-5.9-4.9-11.3-10.4-15.4-17-3.4-5.5-5.7-11.5-5.8-18.1-.1-3 .4-6.1 1.1-9 1.8-7.6 3.4-15.1 3.6-22.9.3-9.3-1.4-18.3-4.2-27.1-2.4-7.4-5-14.8-6.6-22.5-3-14.1-3.3-28.2.3-42.3.1-.4.2-.8.4-1.1h1.9c-2.7 9.3-3.5 18.9-2.8 28.5.6 9.2 2.6 18.2 5.5 27 2.1 6.5 4.2 12.9 5.8 19.5 2.7 11.1 2.2 22.4-.1 33.5-.5 2.6-1.1 5.2-1.8 7.7-2.4 8.6-.9 16.6 3.3 24.3 3.4 6.2 8.1 11.3 13.4 15.9 9.8 8.6 20.9 15.2 32.4 21.3 3.3 1.7 6.9 2.6 10.6 2.7 5 .3 10.1.2 15.1.2 7.3 0 14.6-.1 21.7 1.8 14.9 3.8 24 13.2 26.9 28.3 1.4 7.5 1.5 15.1 1.3 22.7-.3 7.9-.6 15.8.3 23.7 1.3 10.7 6.4 19.4 14.3 26.6 6.7 6.1 14.3 10.7 22.3 14.8 10 5.1 20.4 9.2 30.9 13 3.7 1.4 7.3 2.8 10.9 4.5 5.3 2.4 8 6.7 8.7 12.3 2 15.8-1.2 30.3-11.1 43.2-6.7 8.7-14.5 16.2-23.1 22.9-4.7 3.6-9.5 7.1-14.5 10.3-6.7 4.2-11.8 9.8-15.8 16.5-6.4 10.6-10.2 22.2-12.3 34.3-1.8 10.2-1.2 20.4.2 30.5 1.6 11.3 2.9 22.7 2.2 34.2-.3 4.6-1 9.1-2.9 13.3-3.2 7.4-8.8 11.1-16.8 11.3-9.2.1-17.5-2.5-24.5-8.7-4.6-4.1-7.8-9.3-10.1-15-2.7-6.5-4.2-13.4-5.2-20.4-1.8-12.6-1.6-25.4-1.4-38.1.1-7 .3-13.9.4-20.9.2-8.2-3.2-14.6-9.9-19.2-3.3-2.2-6.9-4.1-10.4-5.9-5.1-2.5-10.3-4.7-15.4-7.2-4.8-2.4-9.3-5.3-13-9.3-4.1-4.4-6.9-9.4-7.7-15.4-.7-4.7.3-9.2 1.8-13.6 1.9-5.4 4.9-10.2 8.2-14.9 5.6-7.9 12-15.1 18.5-22.3 6.9-7.7 14-15.2 20-23.6 2.8-3.9 5.4-8 7.5-12.2 6.2-12.7 4.8-24.8-3.8-36-4.6-6.1-10.5-10.7-17-14.7-5.5-3.4-11.3-6.1-17.3-8.2-9-3.2-16.4-8.4-22.6-15.6-4.3-5.1-8.8-10.2-13.5-14.9-8.2-8.1-17.8-14.3-27.7-20.1-5.6-3.3-11.2-6.8-16.7-10.4-4.2-2.8-8-6.2-11.3-10-3.6-4.2-6.4-8.8-7.3-14.4-.7-4.3-.2-8.4 1-12.6 1.6-5.7 4.2-10.9 7-16 3.2-6.1 6.7-12 9.7-18.2 3.7-7.6 5.7-15.6 5.8-24 .1-4.4-.7-8.8-1.9-13-1.2-4.4-2.5-8.8-3.7-13.1-2.5-8.7-2.4-17.5-1.1-26.4 1.5-9.7 4.7-18.9 8.5-27.9.3-.8.5-1.6.8-2.5 1.1.1 1.9.1 2.7.1zM-279.5 235c4.4.9 8.8 1.5 13.1 2.8 9.7 3 18.3 8.2 26.7 14 5.5 3.8 11.2 7.4 17.2 10.4 9.2 4.7 18.9 6.7 29.1 6.9 10.2.3 20-1.8 29.7-4.5 8.2-2.3 16.5-4.5 24.8-6.6 7.6-1.9 15.2-1.7 22.9-.5 5.2.8 10.4 1.8 15.5 3 6.3 1.4 12.6 1.7 19 .6 3.5-.6 7.1-.9 10.7-1.5 2.5-.5 5-1.2 7.3-2.2 6.8-2.9 13.4-6 20.6-7.9 8.8-2.3 17.1-1.1 25 3.1 2.5 1.3 4.8 2.9 7 4.5 8.5 6.2 17.3 11.8 27.2 15.6 1.9.8 3.9 1.5 5.9 2.1 6 1.6 10.5 5.2 14.4 9.9 3.3 4 5.5 8.5 7.4 13.4 4.2 10.9 11.1 19.1 22.7 22.7 5.1 1.6 10.3 1.9 15.7 1.7 5.7-.2 11.3-1.3 16.8-2.6 1.4-.3 2.8-.6 4.3-.7 2.7-.2 5.2.2 7.7 1.5 6.4 3.2 12.4 6.9 18.4 10.9 13.7 9.1 28.3 16.1 44.6 19.4 14.4 2.9 28.6 2.5 42.6-2.1 2.9-.9 5.9-1.6 8.8-2.4 2.5-.7 4.8-1.7 6.9-3.2 4.5-3.1 9.1-6 13.6-9.1 9.6-6.6 13.8-15.8 12.9-27.4-.6-7.6-2.8-14.9-4.8-22.2-1.7-6.2-3.3-12.3-4.7-18.6-1.2-5.6-1.4-11.2-1-16.9.4-5.9.6-11.8.7-17.7.1-13.2-5.7-23-16.9-29.7-7.3-4.4-15.4-6.6-23.7-7.9-9.2-1.4-18.3-.6-27.5-.2-13.2.6-26.4 1.3-39.5-.3-6.9-.8-13.7-2.1-20.4-4.1-6.3-1.8-11.6-5.3-17.1-8.5-4.4-2.6-8.2-5.8-11.3-9.8-4.6-5.9-9.5-11.7-14.2-17.5-6.7-8.3-14.5-15.3-23.6-20.9-5.6-3.5-11.1-7.3-16.4-11.2-4.6-3.5-8.5-7.8-11.3-12.9-.6-1-1.2-2.2-1.4-3.3-.3-2.5-1.5-4.5-2.7-6.6-4.3-7.2-9.9-13.1-17.6-16.9-3.8-1.8-7.8-2.8-12-3-5-.2-8.8 2-11.7 5.8-3 4-4.4 8.7-5.1 13.5-.8 5.1-2.6 9.7-5.1 14.1-2 3.5-5.2 5.3-9 6.3-4.2 1.1-8.4 2.2-12.6 3.1-6.2 1.4-12.5 2.8-18.8 3.9-8.4 1.6-16.6.5-24.5-2.4-7.4-2.7-14.1-6.8-20.6-11.2-3.4-2.3-6.8-4.6-10-7-2.5-1.9-4.8-4-7.1-6-3.9-3.3-7.9-6.5-11.7-9.9-10.3-9.5-19.7-19.9-29-30.3-5.4-6-10.7-12.1-16-18.2-3.2-3.6-6.9-6.4-11-8.8-4.3-2.5-8.7-4.8-13-7.2-7.8-4.4-16.3-7-24.8-9.6-11.5-3.4-23.3-5.7-35.3-6.3-2.5-.1-4.9-.6-7.4-.8V5.7c11.4 1.3 22.9 2 34.2 4.8 9 2.3 17.9 5 26.5 8.4 2.5 1 4.9 2.3 7.3 3.5 4.6 2.5 9.1 5 13.6 7.6 4.7 2.8 8.8 6.2 12.5 10.4 13.2 14.9 26.1 30.1 40.4 44 3.7 3.5 7.6 6.8 11.5 10.2 2.3 2 4.7 4.1 7.1 6.1 6.7 5.6 14 10.4 21.5 14.8 3 1.7 6.1 3.3 9.2 4.6 9.3 4.1 19 5.4 29 3.1 9.1-2.1 18.2-4.2 27.3-6.2 5.1-1.1 8.6-4 10.5-8.9 1.5-3.6 2.8-7.3 3.4-11.2.5-3.7 1.6-7.4 3.5-10.7 5.2-9 10.8-10.2 18.5-9.2 9.2 1.2 16.4 6.1 22.4 12.8 2.8 3.2 5.1 6.8 7.1 10.5.4.8.8 1.6.9 2.5.3 2.5 1.5 4.5 2.8 6.5 3.7 5.7 8.7 10 14.2 13.8 4.2 2.9 8.5 5.7 12.9 8.4 8.6 5.2 15.9 11.9 22.2 19.6 5.4 6.6 10.7 13.1 16.1 19.7 2.3 2.9 5 5.2 8.1 7.1 4 2.5 8 5.1 12.2 7.1 3.8 1.8 7.9 3 12 3.9 12.6 3 25.4 3.8 38.4 3.4 11.3-.4 22.7-1.2 34-1.1 11.7.1 23 2.8 33.2 8.8 8.3 4.9 14.1 11.7 16.7 21.1 1.4 5.1 1.3 10.3 1.1 15.5-.2 5-.6 10.1-.8 15.1-.2 7 .7 13.9 2.5 20.6 2 7.5 4.3 14.9 6.1 22.4 1.1 4.5 1.9 9.1 2.1 13.7.4 11.4-4 20.7-13.5 27.3-4.5 3.1-9.2 6.1-13.8 9.2-2.3 1.6-4.8 2.8-7.6 3.5-5.7 1.5-11.4 3.3-17.1 4.6-13.3 2.9-26.5 2.3-39.7-1.1-14.7-3.7-28-10.4-40.6-18.5-5.6-3.6-11.4-6.8-17-10.3-3.5-2.1-7.2-2.3-11.1-1.5-4.2.9-8.4 1.9-12.7 2.4-8.4 1-16.8.8-24.8-2.6-6.7-2.9-12.3-7.2-16-13.6-1.9-3.3-3.6-6.8-5.1-10.3-2.5-6.3-5.9-11.9-11.2-16.2-2.2-1.8-4.5-3.3-7.2-4.1-12.4-3.7-23.5-10-33.9-17.6-2.6-1.9-5.2-3.7-8-5.3-7.8-4.4-16.1-5.6-24.7-2.8-5.3 1.7-10.6 3.7-15.7 6-5.2 2.3-10.4 4-16 4.6-4.3.4-8.6 1.2-12.9 1.5-5.4.4-10.7-.8-15.9-2-6.1-1.4-12.2-2.5-18.4-3-7.6-.7-15 .6-22.3 2.6-8.6 2.3-17.2 4.8-25.9 7.1-12.2 3.2-24.5 3.6-36.8 1.3-7.7-1.4-14.8-4.6-21.5-8.6-5.2-3.1-10.3-6.5-15.4-9.8-7.2-4.7-14.6-9-22.8-11.5-4.1-1.3-8.4-1.8-12.6-2.7-.4-.7-.4-1.3-.4-2z"/>
  <path class="st0" d="M-279.5 151c12.9 5 23.5 12.9 31.3 24.3 4.2 6.1 7.3 12.8 10.3 19.5 2.9 6.5 5.8 13 8.8 19.4 5.5 11.9 14.8 19.5 26.7 24.1 8.3 3.2 16.9 4.7 25.8 4.7 6.4 0 12.8-.8 18.9-3 2.8-1 5.3-2.4 7.8-4.2 3.2-2.3 6.5-4.6 10-6.6 6.2-3.5 12.8-3.8 19.4-1.3 3 1.1 5.9 2.5 8.7 4 17 9.1 33.4 7.9 49.6-2.1 4.1-2.6 8.2-5.3 12.5-7.5 6-3.1 12.5-4.9 19.4-4.7 8.1.3 14.2 3.8 18.1 11 .5.8.9 1.7 1.3 2.6 1.9 4.8 5.4 8.2 10 10.5 4.2 2.2 8.8 3.3 13.4 4.3 5.6 1.2 11.1 2.2 16.7 3.4 2.4.5 4.7 1.4 7 2.4 3 1.2 5.6 3.1 7.7 5.6 4.3 5 8.5 10 12.9 14.9 3.7 4.1 7.7 7.9 12.3 11 5.1 3.4 10.7 5.5 16.9 5.3 10.9-.4 20.9 2.7 30.2 8.1 8 4.6 15.7 9.6 23.4 14.6 13.7 9 28.6 14.9 44.7 17.7 7.1 1.2 14.2 1.5 21.2-.4 6.7-1.9 11.6-5.9 14.1-12.6 1.9-5.2 1.3-10-2.2-14.2-2.1-2.5-4.4-4.9-7-6.8-4.5-3.4-9.1-6.5-13.8-9.6-7.5-5-14.9-10-21.5-16.1-3.9-3.6-7.6-7.4-10.4-11.9-7.5-12-17.8-20.8-29.7-28.1-11-6.7-22.7-11.8-34.6-16.4-6.3-2.4-12.5-4.9-18.8-7.2-10.8-3.8-18.6-10.9-24.5-20.5-4.4-7.3-7.9-15-11.3-22.7l-7.2-15.9c-3.8-8.2-9.3-15.1-17.1-19.9-3.6-2.2-7.5-3.7-11.6-4.3-2.4-.4-4.8-.3-7.1.3-2 .5-3.6 1.6-4.9 3.3-7.4 9.9-17.3 15.1-29.7 15.5-2 .1-4-.1-6-.4-4.9-.8-9.4-.1-13.6 2.5-2.5 1.6-4.9 3.4-7.2 5.2-3 2.3-6 4.9-9 7.1-5 3.6-10.5 5.7-16.7 6-6.5.3-12.5-1.7-17.8-5.3-6-4.1-10.8-9.5-15.2-15.2-2.9-3.8-6.1-7.4-10.2-10-2.8-1.8-5.8-3.4-8.8-4.9-9.4-4.7-18.7-9.8-27.6-15.5-8.4-5.4-15.4-12.1-20.9-20.5-4.1-6.2-8.1-12.5-12.5-18.5-7.4-9.9-16.1-18.7-26-26.1-11.9-8.9-25.4-14.1-40.1-15.8-5.3-.6-10.7-.6-16-.9v-1.9c3.8.1 7.7.2 11.5.4 21 1.5 39.1 9.5 54.5 23.8 9.7 9 18.3 19 25.3 30.3 1.5 2.4 3 4.7 4.5 7.1 5.4 8.4 12.4 15.2 20.8 20.6 7.7 4.9 15.6 9.4 23.7 13.5l8.1 4.2c5.8 3 10.6 7.1 14.5 12.3 3.3 4.4 6.8 8.5 10.9 12.1 1.5 1.3 3.1 2.6 4.7 3.7 9.6 6.3 19.5 6.6 29.4.8 3.8-2.2 7.1-5.2 10.6-7.8 2.4-1.8 4.8-3.8 7.3-5.5 4.8-3.3 10.2-4.3 16-3.4 13.8 1.9 24.8-3 33.3-13.7 2.6-3.2 5.6-4.8 9.6-5.1 6.6-.4 12.6 1.7 18.1 5.1 7.6 4.8 12.9 11.6 16.7 19.7 4.2 9.1 8.3 18.4 12.6 27.5 3.5 7.4 7.4 14.5 13.1 20.6 3.3 3.5 6.9 6.5 11.3 8.3 5.9 2.5 11.8 4.8 17.8 7.1 11.6 4.4 23.1 9 34 14.9 9 4.8 17.4 10.4 24.9 17.4 3.8 3.6 7.4 7.4 10.1 11.8 6.2 9.9 14.5 17.7 23.9 24.3 5.6 3.9 11.5 7.6 17.1 11.6 3.4 2.4 6.7 4.9 9.9 7.6 2.5 2.1 4.6 4.7 6.1 7.6 1.7 3.4 2.1 6.9 1.2 10.5-1.8 7.4-6.3 12.5-13.4 15.2-5.3 2.1-10.9 2.7-16.5 2.2-19.8-1.5-37.8-8.4-54.3-19.3-6.1-4-12.2-8-18.4-11.8-6.1-3.7-12.5-6.8-19.4-8.7-3.7-1-7.5-1.6-11.4-1.5-9.4.4-17.5-2.8-24.7-8.7-5.1-4.2-9.5-9.1-13.7-14-2-2.4-4.1-4.7-6-7.2-3.6-4.7-8.4-7.6-14.1-8.9-5.2-1.2-10.5-2.2-15.7-3.4-4.3-1-8.6-2-12.7-3.4-6.9-2.3-11.9-6.8-14.8-13.7-4-9.4-12-12.9-22-11.5-8.9 1.2-16.8 5.1-24 10.3-6.1 4.3-12.7 7.4-20 8.9-11.3 2.2-22.1.8-32.3-4.6-2.8-1.5-5.7-2.9-8.6-4.2-6.7-2.9-13.3-2.6-19.6 1.1-2.6 1.5-5.3 3.1-7.6 5-5.4 4.4-11.6 6.7-18.3 7.7-13.6 2.1-26.8.6-39.5-4.7-11.5-4.8-20.4-12.5-25.7-24-3.6-7.8-7.1-15.6-10.6-23.4-2.8-6-5.8-11.9-9.7-17.3-6.9-9.6-16.2-16.3-26.9-21-.5-.2-1.1-.2-1.6-.3-.1-.8-.1-1.6-.1-2.4zm960 347.1c-2.6-1.1-5.1-2.2-7.7-3.4-13.2-6-23.2-15.4-30.7-27.7-.4-.7-.8-1.4-1-2.2-2.8-7.4-5-14.8-6-22.7-.2-1.9-.3-3.8-.2-5.7.1-3-.2-5.9-1.4-8.7-4.5-10.8-12-18.3-23.8-20.5-3-.6-6.2-.3-9.3-.1-6.3.4-12.6 1.2-18.9 1.5-2.4.1-4.9-.3-7.4-.8-6.6-1.3-11.1-5.2-13.2-11.6-1-3.3-1.6-6.7-2-10.1-.7-6.3-1-12.6-1.5-18.9-.4-4.5-1.1-8.9-2.5-13.2-3.1-9.8-9.5-16.3-19.4-19.3-6.7-2.1-13.7-3.3-20.7-4.2-8-1.1-16.1-1.4-24.2-1-13.3.7-26.1 3.5-38 9.9-8.9 4.8-16.3 11.2-22.3 19.3-6.4 8.7-12.9 17.3-20.2 25.3-5.1 5.6-10.5 10.7-16.7 15.1-12.5 8.8-26.4 11.8-41.4 9.9-5.8-.7-11.1-2.9-16.2-5.7-4.3-2.4-8.4-4.9-12.6-7.4-6.2-3.6-12.6-6.6-19.7-7.9-8.1-1.5-16.1-.8-24 1.2-9.4 2.4-18.4 6-27.3 9.6-9.6 3.9-19.2 8.1-28.8 12-8 3.3-16.2 5.3-24.9 5.4-9.9.1-19.3-1.8-28.4-5.9-9.8-4.5-19.2-9.8-28.7-14.9-9.6-5.2-19.2-10.2-28.9-15.1-6-3-12.3-5.4-19-6.4-2.4-.3-4.8-.4-7.2-.2-2.9.2-5.4 1.5-7.4 3.6-5.7 6.2-7.6 13.4-5.3 21.5 1.5 5.3 4.3 10 7.5 14.4 5.8 7.9 12.8 14.7 20.2 21.1 9.1 7.8 18.3 15.3 27.3 23 4.8 4.1 9.5 8.4 13.3 13.4 2.2 2.8 4.3 5.8 5.9 9 4.1 8 4.4 16.4 1.4 24.9-.7 2.1-1.6 4.2-2.3 6.3-.5 1.5-1.1 3-1.5 4.6-1.2 4.4-.3 8.3 3.2 11.3 2.1 1.8 4.3 3.6 6.8 4.9 10.8 5.9 22.3 9.4 34.7 10.1 9.9.5 19.8-.3 29.7-.9 9.3-.6 18.5-1.3 27.8-.2 4.9.6 9.8 1.6 14.4 3.6 7.3 3.2 12.9 8.3 16.9 15.1 6.3 10.7 9.6 22.2 10.1 34.6.6 14.5-2.5 28.3-8.7 41.4-5.1 10.7-10.5 21.2-15.8 31.8-2.2 4.4-4.3 8.8-6.4 13.1h-1.9c1.3-2.8 2.5-5.7 3.9-8.5 4.7-9.4 9.6-18.8 14.3-28.3 4-7.9 7.7-16 10-24.6 1.8-7 2.9-14.1 2.9-21.3 0-13.1-3.1-25.3-9.7-36.7-6-10.3-15.1-16-26.7-17.9-7.5-1.2-15-1.1-22.5-.7-9.9.6-19.8 1.3-29.7 1.6-15 .5-29.3-2.5-42.5-9.6-2.8-1.5-5.5-3.3-8-5.3-4.5-3.7-6.1-8.5-4.4-14.2 1-3.2 2.2-6.3 3.3-9.5 1.2-3.3 2.1-6.7 2.3-10.3.3-7-1.9-13.2-5.7-19s-8.6-10.7-13.9-15.2c-8.5-7.4-17.3-14.5-25.9-21.8-7.1-6-14-12.2-20-19.3-4-4.6-7.6-9.5-10.1-15.1-2.6-5.7-3.9-11.7-2.3-17.9 1-4.2 3.2-7.8 6.1-11 3.3-3.5 7.5-4.4 12-4.2 6 .2 11.6 2 17.2 4.1 9.6 3.7 18.5 8.6 27.5 13.5 8.8 4.8 17.5 9.6 26.3 14.3 6.8 3.6 13.7 7 21.2 8.9 12.4 3 24.8 2.5 36.8-2 8.4-3.2 16.6-6.8 24.8-10.2 10.4-4.3 20.9-8.5 31.6-11.9 6.7-2.1 13.5-3.2 20.5-3.1 9.1.1 17.5 2.8 25.3 7.3 4.8 2.7 9.5 5.6 14.3 8.3 4.8 2.7 9.8 5 15.4 6 14.4 2.4 27.8-.2 40.1-8.3 7.4-4.8 13.7-10.8 19.4-17.5 5.9-7 11.7-14 17-21.4 12.5-17.5 29.6-27.1 50.5-30.6 19-3.2 37.8-1.6 56.3 3.2 13 3.3 20.8 11.7 23.6 24.7 1 4.7 1.5 9.6 2 14.5.6 5.8.9 11.6 1.5 17.4.2 2 .7 3.9 1.2 5.9 2.1 7 6.9 10.6 14 11.6 5 .7 9.9.2 14.8-.3 3.2-.3 6.3-.8 9.5-1.1 12.7-1.4 22.4 3.7 29.9 13.6 2.3 3.1 4.1 6.5 5.1 10.3.5 1.8.9 3.6.8 5.4-.3 7.1 1.4 13.8 3 20.5 3.1 12.7 10.8 22.1 20.7 30 6 4.8 12.7 8.2 20 10.7.6 1.2.6 2 .6 2.8zm-960-98.9c2.2.8 4.4 1.4 6.5 2.4 6 2.7 11.8 5.5 17.4 9 9.2 5.7 14.5 14.1 16.8 24.4 1.2 5.3 1.7 10.7 2.4 16.1.9 6.3 1.5 12.7 2.7 19 1.3 7.2 5 13.1 10.9 17.5 6.9 5.1 14 10.2 21 15.2 9.3 6.6 17 14.8 23.7 23.9 1.8 2.5 3.4 5.2 4.7 8 5.3 11.5 10.4 23 15.7 34.5 2.8 6.2 6.3 12.1 10.9 17.2 3.1 3.4 6.6 6.3 10.8 8.3.8.4 1.6.7 2.4 1 5.5 1.8 9.7.3 12.8-4.7 2.7-4.3 3.9-9.2 3.9-14.2 0-5.3-.5-10.7-.6-16-.2-6-.4-12 .9-17.9 1.5-7.5 3.4-14.8 7.2-21.5 3-5.2 6.8-10 11.2-14 3.8-3.5 8.6-5.6 13.4-7.2 4.4-1.4 8.9-2.6 13.4-3.8 5-1.4 9.9-3 14.6-5.4 6.4-3.3 11.4-8 14-14.8.6-1.6 1.4-3.2 2.2-4.8 2.6-5.7 6.3-10.6 11.2-14.4 2.3-1.8 4.7-3.6 7.1-5.4 1.5-1.1 2.9-2.3 4.3-3.4 7.8-6.1 10.6-14.3 9.8-24-.7-7.6-3.5-14.4-8.2-20.4-2.7-3.4-6-5.8-10.1-6.9-4.6-1.2-9.4-1.9-14.1-2.9-3.1-.7-6.3-1.3-9.2-2.4-5.5-2.1-9.3-6-11.3-11.7-.7-2-1.4-3.9-2.2-5.8-3.4-8.2-9.5-11.2-18.4-9.1-5.8 1.3-10.9 4.1-15.6 7.7-4.1 3.2-8.1 6.5-12 9.9-7.6 6.6-15.9 11.9-25.4 15.2-9.3 3.2-18.8 4.9-28.7 5-20 .4-38.9-4.1-56.6-13.1-6.8-3.5-13.3-7.7-19.9-11.6-8.1-4.9-16.3-9.5-25.4-12.4-2.9-.9-5.9-1.6-8.8-2.3-1.8-.5-3.5-.9-5.3-1.3v-2.4c2.4.7 4.9 1.6 7.3 2.1 9.6 2.2 18.5 6.1 27 11.1 6.7 3.9 13.3 8 20 12 15.2 8.9 31.6 14 49.1 15.8 13.2 1.3 26.2.4 38.8-3.8 9-3 17-7.6 24.3-13.7 4.8-4 9.5-8.1 14.4-11.9 5.4-4.2 11.3-7.3 18.1-8.3 2.3-.3 4.8-.2 7.1.1 4 .6 7.2 2.7 9.2 6.2 1.7 2.9 3.1 6 4.2 9.1 2.2 6.7 6.7 10.8 13.3 12.5 4 1.1 8.2 1.5 12.2 2.4 3.3.7 6.6 1.4 9.7 2.4 3.2 1 6.1 2.9 8.3 5.5 8.1 9.5 11.3 20.4 9.3 32.8-1 5.7-3.8 10.4-8.1 14.1-3.1 2.7-6.4 5.4-9.8 7.7-7.2 5-12.4 11.4-15.6 19.6-.2.4-.4.9-.6 1.3-3 7.9-8.7 13.1-16.1 16.6-5.6 2.7-11.5 4.4-17.5 5.9s-11.9 3.2-17.3 6.2c-3 1.7-5.6 3.8-8 6.4-7.8 8.2-12 18.1-14.4 29-1.6 7.4-1.6 14.7-1.2 22.2.2 4.5.5 9.1.6 13.7.1 4.5-1 8.9-2.8 13-.4 1-.9 1.9-1.5 2.7-3.4 5.3-8.2 7.2-14.3 5.3-2.7-.9-5.3-2.3-7.7-3.8-6.2-4-10.5-9.8-14.2-16-3.9-6.6-6.7-13.6-9.8-20.6-3.4-7.7-6.9-15.3-10.5-22.9-1.2-2.6-2.9-5-4.6-7.3-7.1-9.6-15.5-17.8-25.4-24.6-5.7-3.9-11.2-8-16.8-12-7.5-5.4-12.2-12.5-13.4-21.8-.9-7-1.9-13.9-2.7-20.9-.7-5.7-1.5-11.4-3.4-16.9-2.5-7.3-6.7-13.4-13.3-17.6-4.6-3-9.3-5.9-14.5-8-3.3-1.3-6.5-2.7-9.7-4.1.2-.7.2-1.4.2-2zm0-473.3c8.9.7 17.5-.8 26.2-2.1 15.1-2.3 29.6-6.7 44-11.4 16.7-5.4 33.8-9.2 51.2-11.5 12.5-1.7 25.1-2.9 37.6-4.4 8.5-1 17-2 25.4-3.2 5.5-.8 10.6-3.1 15.7-5.2 8.5-3.6 16.9-7.3 25.4-10.8 11.1-4.6 22.6-7.6 34.5-8.8 12.2-1.3 24.3-.4 36 3.4 15.9 5.2 27.9 15.2 36.3 29.7 4.8 8.3 8.2 17.1 11.4 26.1 2.9 8.2 6 16.4 10.7 23.8 8.3 13 18.9 23.5 32.9 30.4 6.7 3.3 13.8 5.1 21.2 5.6 7.8.5 15.3 2.3 22.8 4.5 4.7 1.4 9.5 2.9 14.5 3.2 2.4.1 4.8.1 7.1-.3 3.6-.5 6.3-2.7 8-5.9s2.3-6.6 2.6-10.2c1-14.1-2.5-27.1-9.3-39.3-2.9-5.2-6.1-10.3-9.3-15.4-6-9.4-11.2-19.2-15-29.7-4.5-12.5-6.2-25.4-6.3-38.6-.1-13.1 1.1-26 2.8-39 1.7-13.3 3.3-26.6 4.8-40 .6-6 .8-12 1.1-17.9.4-8.8.8-17.6.9-26.4.1-4.1-.6-8.1-.9-12.2h1.9c.3 3.9.8 7.8.9 11.7.3 10.6-.5 21.3-1.2 31.9-.5 7.1-.9 14.2-1.6 21.3-.9 8.5-2.1 17-3.1 25.5-1.8 14.3-3.5 28.6-3.6 43-.3 23.5 6 45.2 18.4 65.1 4 6.4 8 12.7 11.7 19.2 4.4 7.8 7.6 16 9 24.9 1.2 7.5 1.6 14.9-.2 22.4l-.3 1.2c-2.2 6.9-6.4 10.3-13.6 10.8-3.8.3-7.5-.2-11.2-1.2-5.7-1.4-11.2-3.2-16.9-4.5-4.5-1-9.1-1.9-13.7-2.2-11.9-.8-22.6-4.9-32.2-11.8C82.3-32.6 72-46.2 65.7-62.6c-2.5-6.4-4.6-13-7.2-19.3-2.2-5.4-4.7-10.7-7.6-15.7-9.1-15.9-22.8-25.8-40.6-30.1-11.1-2.7-22.3-2.8-33.6-1.2-13.3 1.8-25.8 6.2-38 11.5-6.6 2.9-13.2 5.6-19.8 8.5-8 3.5-16.4 5.1-25.1 6.1-15.3 1.6-30.5 3-45.8 4.9-20.3 2.5-40.2 6.8-59.6 13.2-11.7 3.8-23.5 7.4-35.6 9.5-9.1 1.6-18.3 3.3-27.6 3.3-1.6 0-3.2-.1-4.8-.1.1-.8.1-1.4.1-2.1z"/>
  <path class="st0" d="M-279.5-101c1.5.3 3 .3 4.5.8 5.2 1.8 10.5 1.8 15.9 1.4 11.6-.9 22.3-4.5 32.7-9.7 13.5-6.7 27.5-12.1 42.3-15.2 12.4-2.6 24.8-3.3 37.4-1.9 23.9 2.7 46.6-1.4 68.2-12 6.5-3.2 13-6.5 19.7-9.3 13.9-5.8 28.4-9.3 43.5-9.9 13.5-.6 26.5 1.1 38.8 7 6.4 3 12.1 7.1 17.6 11.5 13.8 10.9 25.2 24 35 38.6 4.6 6.9 8.9 14.1 13.1 21.2 6.8 11.4 15.2 21.3 26.3 28.8 5.5 3.8 11.5 6.7 18.1 8 6.4 1.3 12.6.9 18.4-2.2.5-.3 1-.5 1.4-.8 3.3-2.2 4.4-4.9 3-8.7-.8-2.3-1.9-4.6-3.3-6.6-3.5-5.4-7.2-10.6-10.8-15.9-7.4-10.9-13.7-22.4-17.4-35.1-2.5-8.5-3.8-17.1-4.6-25.9-.9-10.4-1.2-20.9-.8-31.4.4-10 1-19.9 1.6-29.9.4-6.7 1.1-13.4 1.5-20.1.6-9.6 1.2-19.1 1.6-28.7.3-8.9.3-17.9-1.5-26.8-.4-2-1-3.9-1.5-5.8h1.9c2.1 6.3 2.6 12.8 2.9 19.4.5 13-.4 26-1.3 39.1-.9 12.8-1.9 25.5-2.6 38.3-.5 8.9-.8 17.9-.8 26.8 0 11.5.9 23 3 34.4 2.6 14.2 8.2 27.2 16 39.3 3.7 5.7 7.7 11.2 11.4 16.9 1.9 2.8 3.6 5.7 5.2 8.6.6 1.1 1 2.3 1.4 3.6 1.2 4.2 0 7.5-3.7 10-2.7 1.9-5.8 3.1-9 3.7-6.4 1.3-12.6.4-18.6-1.8-8.5-3.1-15.7-8.2-22.3-14.3-7.5-7-13.5-15.1-18.6-24-8.5-15-18.3-29.1-30-41.8-8.3-8.9-17.5-16.9-27.8-23.4-8.3-5.2-17.5-8.2-27.2-9.4-18.9-2.4-37.1.8-54.8 7.4-6.2 2.3-12.3 5.1-18.2 8.1-12.5 6.3-25.3 11.4-39.1 14-10.2 1.9-20.5 2.1-30.8 1.4-5.3-.3-10.5-1-15.8-1.1-12.7-.4-25.1 1.9-37.3 5.4-11.4 3.3-22.2 8.1-32.9 13.3-9.6 4.7-19.6 7.9-30.2 8.8-6 .5-12 .6-17.8-1.5-1.2-.4-2.5-.5-3.8-.7.1-.6.1-1.2.1-1.9zM224 680.5c.8-4.5 2.2-8.8 4.1-13l23.4-51c3.2-6.9 5.4-14 5.8-21.6.9-16.6-9.3-28.7-24.9-30.7-4.8-.6-9.6-.2-14.3 1-10.6 2.8-21.4 3.3-32.3 2.7-13-.8-25.7-3-38.1-7-7.6-2.4-14.8-5.5-21.5-9.9-6-4-9.7-9.4-10.6-16.6-.3-2.6-.5-5.3-.3-7.9.3-7.3.9-14.7 1.2-22 .3-6 .2-12-1.5-17.8-3.4-11.4-10.6-19.1-22-22.3-6.6-1.9-13.3-1-19.9 1-5.6 1.7-10.9 4.2-15.9 7.3-9 5.5-17 12.3-23.7 20.4-2.4 2.8-4.5 5.8-5.9 9.3-1.6 3.7-4.3 6.5-7.3 9.1-5.1 4.4-10.8 7.7-16.7 10.7-11.5 5.9-23.4 10.7-35.5 15.2-9.5 3.5-16.8 9.4-22.5 17.5-7.9 11.2-13 23.7-15.6 37.1-1.1 5.5-1.2 11.3-1.7 16.9-.8 9.7-.9 19.5-1.2 29.2-.4 14.6-2.9 28.9-8.4 42.6h-1.9c1.3-4.1 2.8-8.2 4-12.3 2.6-9 4-18.1 4.3-27.4.2-6.2.1-12.3.5-18.5.7-10.2 1.4-20.4 2.5-30.6.6-6.1 2.9-11.9 5.1-17.7 3.1-8.1 7-15.8 12.4-22.6 5.5-7 12.2-12.3 20.6-15.5 11.7-4.4 23.4-9 34.6-14.7 4.6-2.4 9.1-5 13.5-7.8 3-2 5.6-4.5 8.2-7 1.3-1.2 2.4-2.8 3.2-4.5 2.3-5.5 6-10 10-14.3 8.1-8.5 17.3-15.6 28-20.7 7-3.3 14.3-5.6 22.1-5.4 12.8.2 22 6.4 28.2 17.3 3.6 6.3 4.6 13.3 4.5 20.4-.1 6.2-.5 12.5-.9 18.7-.3 5.8-.7 11.7.2 17.5.8 5 3.2 9.1 7.2 12.3 4 3.1 8.4 5.6 13 7.6 10.4 4.6 21.3 7.3 32.5 9.1 8.5 1.4 17.1 2.1 25.8 1.9 7-.2 13.9-.9 20.6-2.7 8.3-2.2 16.6-2.3 24.7 1.2 10.4 4.5 16 12.7 17.4 23.7 1.3 9.9-1.3 19.2-5.4 28.1-7.7 16.9-15.5 33.9-23.3 50.8-2 4.2-3.6 8.5-4.4 13.1-.6-.2-1.3-.2-1.9-.2zm380.2 0c-3.4-6.3-7.8-11.9-12.7-17.1-11.2-11.9-24-21.8-37.5-30.8-7.5-5-14.4-10.6-20.4-17.4-9-10.3-14.5-22.3-17.1-35.7-1.5-7.9-2.7-15.9-3.9-23.9-.9-5.6-2-11-4.7-16-4.8-9.1-12.6-14.5-22.2-17.5-5.1-1.6-10.4-2.3-15.8-2.6-4.6-.2-9.2-.9-13.6-2.5-6.5-2.4-11.6-6.7-15.9-12-4.1-5-7.4-10.6-10.8-16.1-1.1-1.8-2.3-3.6-3.4-5.5-4-6.7-9.9-9-17.4-7.4-3.8.8-7.7 1.7-11.4 2.9-2.2.7-4.4 1.9-6.3 3.4-2.8 2.2-3.8 5.2-3 8.8 1.1 4.9 3.8 8.8 7.2 12.2 3 3 6.3 6 9.8 8.4 9.8 6.9 14.5 16.3 14.8 28.1.2 8.1-1.6 15.9-4 23.5-5.7 18.3-15.5 34.3-27.9 48.8-15.1 17.5-32 33.1-50.3 47.2-4.3 3.3-9.1 6.1-12.8 10-2.9 3-5.5 6.2-8.1 9.4-.4.5-.6 1.1-.9 1.7h-2.4c1.5-2.2 2.9-4.6 4.6-6.7 3.8-4.8 8.3-8.9 13.3-12.3 7.5-5.1 14.4-10.9 21.3-16.8 13.7-11.8 26.5-24.5 37.9-38.6 11.6-14.3 20.1-30.2 24.9-47.9 1.9-7 3.1-14.2 2.3-21.6-1-9.5-5.3-17.2-13.1-22.7-4.9-3.5-9.5-7.3-13.2-12.1-2.4-3.1-4.3-6.3-5.1-10.2-.9-4.3.3-7.9 3.6-10.8 2.2-1.9 4.7-3 7.4-3.9 5-1.6 10-2.8 15.2-3.1 4.4-.2 8.5.7 11.6 4.1 1.9 2 3.6 4.3 5.1 6.6 2.9 4.4 5.6 9 8.4 13.4 2.7 4.1 5.7 7.9 9.4 11.1 5.6 4.9 12.2 7.5 19.5 8.3 4.5.5 9.1.7 13.6 1.4 7.1 1.1 13.7 3.7 19.5 8 7.6 5.7 12 13.4 13.8 22.6 1.2 6.2 2 12.5 2.9 18.7 1.3 8.8 3.1 17.5 6.5 25.7 5.2 12.8 13.7 23 24.5 31.4 3.5 2.7 7.1 5.1 10.7 7.6 11.7 8.1 22.8 16.7 32.7 26.9 5.4 5.6 10.4 11.5 14.3 18.3.4.7.7 1.6 1.1 2.4-.8.3-1.4.3-2 .3z"/>
  <path class="st0" d="M93.4-279.5c-1.3 14.1-.5 28.1.8 42.1 1.4 14.6 3 29.3 4.3 43.9.7 8.7 1.2 17.4 1.4 26.1.1 5.3-.3 10.6-1.7 15.7-.7 2.4-1.6 4.7-2.8 6.9-2.2 4-5.7 6.1-10.3 6.5-4.7.4-9.2-.7-13.6-2.3-6.8-2.4-13.2-5.7-19.6-9-14.6-7.4-29.2-14.9-44.8-20.2-9.4-3.2-19-5.7-29-5.9-9.6-.2-18.6 1.7-26.4 7.8-11.1 8.8-23.7 14.8-37 19.4-14.1 4.9-28.6 8.1-43.5 9.5-10.4 1-20.9 1.2-31.3-.9-4.8-1-9.5-2.1-14.4-2.3-12.7-.6-25 1.6-37.2 4.9-2.9.8-5.8 1.9-8.7 2.7-4.7 1.3-8.7 3.9-13.1 6-13.3 6.3-27.2 9.2-41.9 8.3-1.4-.1-2.9-.2-4.3-.4v-1.9c5.3.4 10.7.6 16 .2 11-.9 21.4-3.8 31.1-9 7.6-4 15.6-6.6 23.8-8.7 11.3-2.9 22.7-4.7 34.4-4 3.7.2 7.5.7 11.1 1.5 8.8 2.1 17.7 2.6 26.7 2.1 15.3-.8 30.3-3.6 44.9-8.1 12.6-3.9 24.8-9 35.8-16.5 2.1-1.4 4.2-3 6.2-4.5 6-4.5 12.7-6.9 20.1-7.8 10.6-1.2 20.9.7 31 3.7 11.5 3.4 22.5 8.1 33.3 13.4 8.9 4.3 17.7 8.9 26.6 13.3 5.7 2.8 11.5 5.3 17.7 6.4.4.1.8.2 1.2.2 7.9 1 12.8-2 15.2-9.6 1.1-3.3 1.7-6.8 2-10.3.9-9.4.2-18.8-.7-28.2-.8-8.8-1.7-17.5-2.6-26.2-.7-7.5-1.5-14.9-2.2-22.4-1.1-12.8-1.8-25.7-1.1-38.6.1-1.3.2-2.5.4-3.8h2.2zm244.4 0c-5.7 8-9.6 16.8-10.8 26.6-.7 5.8-.2 11.6.7 17.4 1.2 7.4 2 14.9 2.8 22.3 1 10.1 1.6 20.2 3.9 30.2 1.1 4.7 2.5 9.2 4.8 13.5 4.2 8.2 10.7 13.9 19.5 16.8 8.2 2.7 16.6 4.1 25.2 3.8 10.1-.3 19.5-3.3 28.2-8.3 4.9-2.8 9.8-5.8 14.5-8.9 8.2-5.5 17.1-6.6 26.6-5.5 9.3 1.1 17.8 4.3 25.4 9.9 6.6 4.9 11.3 11.2 13.9 19.1 2.3 7.1 7.4 11.8 13.7 15.3 6.4 3.5 13.4 5.3 20.5 6.2 9.1 1.2 18.2.9 27.1-1.4 3-.8 5.9-1.9 8.8-3.1 3.2-1.3 6.1-3.3 8.3-6 3.6-4.5 7.1-9 10.7-13.5 2.2-2.7 4.2-5.4 6.6-7.9 4.9-5.1 10.8-6.3 17.3-3.5 3.1 1.3 6 3 8.8 4.8 7.7 4.7 15.2 9.7 23 14.3 11.2 6.5 23.1 11.3 35.9 13.8 2.4.5 4.7.8 7.1 1.2v1.9c-12.6-1.4-24.5-5.4-35.8-10.9-10.4-5-20-11.4-29.7-17.6-2.7-1.7-5.4-3.4-8.3-4.8-2.8-1.4-5.8-2.4-9-2-3.7.5-6.6 2.5-8.9 5.2-2.5 2.9-4.8 6-7.2 9-2.7 3.4-5.4 6.9-8.2 10.3-3.8 4.6-8.7 7.5-14.2 9.3-9.5 3.2-19.2 3.9-29.1 3.2-8.5-.6-16.8-2.5-24.4-6.5-5.9-3.1-10.7-7.2-13.7-13.3-.4-.8-.7-1.6-1-2.4-3.3-10.5-10.2-17.9-19.8-23-8.3-4.3-17.2-6.4-26.6-5.9-5.6.3-10.8 1.8-15.6 4.8-5.5 3.5-11.1 7-16.8 10.2-14.5 8.1-30 9.8-46.2 6.3-2.3-.5-4.5-1-6.7-1.7-10.7-3.2-18.2-10-22.8-20.1-2.7-6.1-4.3-12.5-5.2-19.1-1-7.6-1.7-15.2-2.5-22.9-.8-8.7-1.9-17.3-3.4-25.9-2-12.2.4-23.7 6.1-34.5.9-1.7 2-3.3 2.9-5 .3-.5.4-1 .5-1.5 1.1-.2 2.1-.2 3.1-.2zm-153.2 960c1.3-3.2 2.3-6.5 3.9-9.5 3.2-6.2 7.6-11.5 12.5-16.3 5-5 9.8-10.3 13.5-16.5 2.9-4.8 5.2-9.8 5.9-15.3 1.3-10.9-2.5-19.6-11.3-26-5.5-4-11.8-5.9-18.3-7.5-8.1-1.9-16.4-2.9-24.6-3.9-10.6-1.3-21.3-2.3-31.7-5.3-4.5-1.3-8.8-2.9-12.8-5.3-5.6-3.4-9.7-8-12-14.2-2.8-7.4-6.3-14.5-11.6-20.6-6.7-7.7-15.1-11.9-25.3-12.3-8-.3-15.6 1.1-23.1 3.7-6.1 2.2-12.1 4.5-18 7.3-12 5.8-24.2 10.9-36.5 15.9-7.2 3-14.4 6.2-21 10.5-5.1 3.3-9.6 7.2-12.8 12.5-3.8 6.1-5.3 12.8-5.4 19.9-.2 7.7 1 15.1 2.8 22.5 3.6 14.4 5 29 3.9 43.8-.4 5-1.3 10-2 15-.1.6-.2 1.1-.2 1.7h-1.9c.6-3.5 1.2-7.1 1.7-10.6 1.2-8.8 1.1-17.5.5-26.3-.7-9.2-2.7-18.2-4.7-27.1-1.5-6.7-2.1-13.6-1.8-20.5.6-12.5 5.8-22.6 15.9-30.1 5.3-3.9 11.1-7 17.1-9.6 9.7-4.2 19.5-8.2 29.1-12.4 7.2-3.1 14.2-6.7 21.3-9.9 7.3-3.3 14.9-5.8 22.8-7.2 6.3-1.1 12.6-1.4 18.8-.1 9.5 1.9 16.7 7.3 22.5 14.9 3.9 5.2 7 10.9 9.1 17.1 3 8.6 9 14 17.1 17.3 6.5 2.7 13.4 4.2 20.4 5.2 9.9 1.4 19.8 2.5 29.7 3.9 7.2 1 14.4 2.3 21.3 4.8 5 1.8 9.8 4 13.7 7.7 8.7 8.2 11.3 18.3 8.3 29.8-1.7 6.6-5 12.5-9.3 17.7-3.5 4.3-7.4 8.4-11.2 12.5-4.6 5-8.9 10.3-11.8 16.5-1 2.1-1.7 4.3-2.5 6.5-.7-.2-1.3-.2-2-.2zm-464.1-565c4-1.3 8-2.7 12.1-4 2.7-.9 5.3-1.9 7.9-2.7 8.1-2.5 15.5-1 22.1 4.2 5.4 4.2 9.3 9.7 12.2 15.8 2 4.3 4.8 7.9 8.4 11 9.1 7.8 19.4 13.1 31.3 15.3 1.6.3 3.4.5 5 .4 6.1-.4 11.5 1.4 16.8 4.1 8.2 4.2 15.2 10 21.8 16.4 2.8 2.7 5.4 5.7 8.3 8.3 8 7.1 17.1 12.4 27.5 14.9 2.4.6 4.9.7 7.4.7s4.7-.8 6.6-2.4c2-1.8 2.4-3.9 1.2-6.3-1.2-2.3-3-3.9-5-5.5-6.1-4.6-13-7.4-20.4-9.4-2.1-.6-4.2-.9-6.3-1.5-5-1.4-9-4.4-12.2-8.4-2.1-2.6-4-5.4-6-8.1-4.7-6.6-10.8-11.2-18.5-13.9-9.7-3.4-17.5-9.5-24.3-17.1-6.5-7.2-11.8-15.3-17.1-23.4-3.7-5.6-7.1-11.4-11.1-16.8-8.8-12.1-20.1-21.2-34.4-26.2-9.6-3.3-19.5-4.3-29.6-3.5-1.3.1-2.5.2-3.8.3v-1.9c6.4-.5 12.8-.8 19.1 0 15.7 1.8 29.2 8.3 40.6 19.2 5.3 5.1 9.8 10.9 13.8 17.1 5.6 8.6 11.2 17.2 17 25.6 4.4 6.3 9.5 12 15.6 16.8 4.6 3.6 9.5 6.4 15 8.3 7.3 2.5 13.2 6.8 17.8 12.8 1.9 2.5 3.8 5.1 5.7 7.7 4.1 5.8 9.5 9.3 16.5 10.6 7.6 1.4 14.7 4.3 21.2 8.6 2.1 1.4 4 3.1 5.8 4.9 1.7 1.6 2.8 3.7 2.8 6.2 0 1.7-.5 3.1-1.6 4.4-2.2 2.5-5.1 3.5-8.3 3.7-4.6.3-9.1-.7-13.4-2.3-11.2-4.1-20.7-10.7-28.9-19.5-7.3-7.8-15.5-14.5-25.2-19.3-4.6-2.3-9.5-3.7-14.8-3.4s-10.3-1.2-15.2-3c-9.3-3.5-17.8-8.3-24.8-15.5-2.4-2.4-4.3-5.1-5.8-8.2-2.8-5.8-6.2-11.2-11.2-15.4-6.5-5.5-13.8-7.2-21.9-4.5-5.7 1.9-11.3 3.9-17 5.9-1 .3-2 .5-3 .8.3-.5.3-1.1.3-1.8z"/>
  <path class="st0" d="M383.4-279.5c-5 6.5-9.8 13-14.9 19.4-6.1 7.8-9.5 16.6-10.6 26.3-1.8 15.8 1.4 30.9 7.3 45.4 1 2.6 2.5 5 4.1 7.3 5.1 7 12.5 9.5 21 7.4 5.6-1.4 10.5-4.3 14.9-7.9 2.5-2.1 4.9-4.3 7.2-6.7 7.9-8.2 17-14.6 27.7-18.5 5.1-1.9 10.4-2.7 15.8-2 6.8.8 12.1 4.3 16.4 9.5 5 6.2 9.9 12.3 15.1 18.3 5.9 6.8 12.4 12.9 20.3 17.4 13.9 8 28 7.9 42.3 1.3 8.6-4 13.4-11.1 15.4-20.2 1.2-5.3 1.7-10.8 1.4-16.2-.5-10.1-1.2-20.3-1.7-30.4-.5-9.6-.8-19.2-.1-28.8.5-7.6-1.5-14.6-6.3-20.6-.2-.3-.3-.7-.5-1.1h2.4c3 4.3 5.3 9 5.9 14.2.3 2.3.5 4.6.4 6.9-.7 12.5-.2 24.9.7 37.4.7 9.1 1.4 18.2 1.1 27.3-.2 5-.7 10-2.2 14.9-2.6 8.6-8 14.9-16.2 18.6-18.1 8.1-35 5.7-50.7-6.4-7.2-5.6-13.4-12.4-19.2-19.4-3.1-3.8-6.2-7.6-9.2-11.4-6.6-8.5-15.2-11.2-25.6-8.9-8.9 2-16.6 6.3-23.5 11.9-4 3.2-7.5 6.9-11.2 10.5-4.3 4-8.9 7.5-14.3 10-3.5 1.6-7.2 2.7-11.1 2.8-7.1.2-12.7-2.5-17.2-7.9-2.5-3.1-4.4-6.7-5.8-10.4-4.9-13-7.7-26.4-7-40.4.6-11.9 4.2-22.7 11.8-32.1 4.2-5.2 8.1-10.5 12.1-15.8.4-.5.6-1.2 1-1.8 1 .1 2 .1 3 .1zm-662.9 134.9c7.5.6 14.8-.4 22.1-2.1 12.3-2.9 23.4-8.4 33.6-15.9 11.6-8.6 24.3-15.1 38.4-18.6 11.1-2.8 22.2-2.9 33.4.4 11.8 3.6 24 5.5 36.4 5.4 25.1-.1 47.1-8.4 66-24.9 2.2-1.9 4.3-4.1 6.6-5.9 3-2.3 6-4.6 9.3-6.3 7-3.7 14.4-4.1 21.9-1.8 5.2 1.6 10.2 3.8 15.3 5.6 4.2 1.5 8.4 3.1 12.8 4.1 7.7 1.8 14.9.1 21.6-3.9 12.9-7.6 20.5-18.9 23.1-33.6 1.2-6.5 1.5-13 1.9-19.5l.9-15.3c0-.8 0-1.6.1-2.4h1.9c-.4 7.4-.8 14.8-1.2 22.3-.3 6-.8 12-2.1 17.8-3.1 14.2-11 25-23.5 32.4-8.3 4.9-17.1 6.1-26.3 3.4-4.9-1.5-9.6-3.4-14.4-5.3-4.8-1.8-9.5-3.7-14.6-4.6-6-1-11.6.1-17 2.8-4.3 2.2-8 5.3-11.5 8.6-14.1 13.3-30.4 22.4-49.5 26.3-9.2 1.9-18.5 2.5-27.9 1.9-10.6-.7-21-2.5-31.1-5.5-11.1-3.3-22.1-2.8-33.1.2-13.3 3.6-25.3 9.9-36.3 18.1-12.6 9.3-26.6 15.3-42.1 17.6-4.8.7-9.7 1.1-14.6.7-.1-.8-.1-1.4-.1-2zm960 45.6c-11-3.5-21.4-8.5-32-12.8-8.7-3.5-17.5-6.6-26.8-8.2-7.6-1.3-15.3-1.5-22.9.2-5.1 1.1-9.4 3.5-12.9 7.3-2 2.1-4 4.2-5.9 6.3l-1 1c-3.9 3.9-8.6 5.9-14.2 6.1-6.1.2-12.1.6-18.2.9-6.8.4-13.6 1.6-19.5 5.2-6.9 4.2-12.8 9.6-16.3 17.1-2.6 5.5-4.5 11.2-5.3 17.3-1 8.6 2.4 19.4 13.1 24.1 6.2 2.7 12.6 4.1 19.2 5.1 7.1 1.1 14.2 2.1 21.3 3.5 7.7 1.6 14.6 5.2 21.2 9.3 4.4 2.7 8.6 5.5 13 8.2C606-.7 619.9 4 634.7 5.5c4.1.4 8.3.2 12.5.1 6.7-.1 13.4-.3 20.1-.3 4.4 0 8.8.2 13.2.3v1.9c-6.6-.1-13.3-.3-19.9-.3-6.1 0-12.1.1-18.2.3-9.5.3-18.6-1.4-27.6-4.2-9.7-3-18.7-7.4-27.1-13-3.3-2.2-6.6-4.2-10-6.2-8.4-5.2-17.5-8.4-27.3-9.8-7-1-14.1-2.1-21.1-3.4-4.3-.8-8.3-2.3-12.3-4.1-11.1-5.1-14.4-16.5-13.5-25.6.8-6.9 3-13.2 6.1-19.3 1.7-3.3 3.9-6.2 6.5-8.9 8-8.4 17.8-12.4 29.2-13.1 5.8-.3 11.7-.6 17.5-.9 1.9-.1 3.9-.2 5.7-.7 1.8-.4 3.6-1 5-2.1 2.7-2.1 5.2-4.5 7.7-6.8 1.1-1 2.1-2.2 3.1-3.3 5.1-5.6 11.6-8 18.9-8.8 10.6-1.2 20.9.5 31 3.6 5.7 1.8 11.3 3.9 16.9 6.1 9.8 3.9 19.6 7.9 29.3 11.8.1.9.1 1.5.1 2.2zM39.2 680.5c2.6-6.1 4.1-12.6 5.9-19 1.5-5.5 3-11 4.9-16.3 1.2-3.3 2.8-6.4 4.7-9.4 2.9-4.5 7.1-7.2 12.4-8.2 8.7-1.5 17.3-3.1 25.9-4.8 5-1 9.9-2.4 14.5-4.8.9-.5 1.8-1 2.7-1.6 6-3.9 8.3-9.5 7.1-16.5-3.6-21.2-21.4-38.7-42.7-41.9-5.3-.8-10.5-.4-15.8 0-11.3.9-22.5 2.9-33.4 6.1-10.9 3.3-21.2 7.6-30.4 14.3-10.2 7.4-17.6 16.8-21.4 29-1.6 5.4-1.5 10.6.7 15.7 1.5 3.4 3 6.7 4.6 10 6.1 12.3 8.2 25.3 7.5 38.9-.1 2.8-.4 5.6-.6 8.4h-1.9c.2-5.3.6-10.7.6-16-.1-11-3-21.5-7.8-31.4-1.5-3.1-3-6.2-4.3-9.4-2.3-5.4-2.4-11-.7-16.6 4.1-13.4 12.4-23.5 23.8-31.2 9.3-6.4 19.7-10.6 30.5-13.7 11.5-3.3 23.2-5.2 35.1-6 6.7-.5 13.5-.6 20 1.5 20.7 6.6 33.4 20.5 38 41.7.6 2.9.6 5.9-.1 8.8-1.1 4.7-4.2 8-8.2 10.5s-8.5 4.2-13.1 5.2c-8.3 1.8-16.6 3.2-24.9 4.8-2 .4-3.9.7-5.9 1.1-3.9.8-7.1 2.8-9.6 5.9-2.5 3.1-4.4 6.5-5.5 10.3-2.1 6.5-3.8 13.2-5.8 19.8-1.3 4.5-2.7 9-4.1 13.5-.1.4-.2.9-.3 1.4-.8-.1-1.6-.1-2.4-.1zM680.5 237c-2.9-.7-5.7-1.3-8.6-2-7.3-1.6-14.4-3.5-21.1-7-6.5-3.4-11.7-8.1-15.1-14.6-2-3.8-2.8-8-3.7-12.1-1.1-5.5-2.2-11-3.4-16.4-1.1-4.9-3.2-9.4-6.6-13.1-1.2-1.3-2.5-2.5-3.9-3.5-4.7-3.4-9.6-3.2-14.2.3-4.5 3.5-8.4 7.7-11.9 12.1-4.6 5.8-8.5 12-12.1 18.4-4 7.3-5.5 15.3-4.9 23.6.4 5.2-.2 10.2-1.6 15.2-1.2 4.1-2.3 8.2-3.2 12.3-.4 1.7-.6 3.5-.5 5.2.2 4.3 2.1 7.9 5.7 10.3 4.5 2.9 9 5.8 13.7 8.4 9.4 5.2 19.5 8.8 29.6 12.4 3.4 1.3 6.8 2.8 10.1 4.4 5.2 2.7 8.8 6.7 10.5 12.5 2.1 7.2 4.5 14.3 7.1 21.4 2.7 7.5 6.5 14.4 12.1 20.2 1.2 1.2 2.4 2.3 3.8 3.3 5.7 4.3 11.8 7.9 18.2 11.1v1.9c-4.6-2.6-9.2-5.1-13.8-7.7-9.7-5.5-15.9-13.9-20.3-23.9-3.3-7.5-5.5-15.3-8-23.1l-.9-2.7c-1.4-5.3-4.8-9-9.6-11.4-3.1-1.6-6.3-3.1-9.6-4.3-10.7-3.9-21.5-7.8-31.5-13.4-3.8-2.1-7.4-4.5-11-6.8-6.8-4.3-9-10.5-7.4-18.2.8-3.7 1.8-7.3 2.9-10.9 1.7-5.7 2.3-11.3 1.9-17.3-.6-9.1 1.5-17.6 6.1-25.5s9.5-15.6 15.8-22.2c2.3-2.4 4.8-4.8 7.3-6.9 5.3-4.4 11.4-4.6 17-.6 4.6 3.3 7.7 7.8 9.7 13.1 2.2 5.9 3 12.1 4.2 18.2.6 2.8 1.2 5.6 1.9 8.4 1.9 8 6.7 13.8 13.5 18.2 5.3 3.4 11.2 5.5 17.2 7 4.3 1.1 8.7 2 13.1 2.9.5.1.9 0 1.4 0 .1 1.2.1 2 .1 2.8zm0 288c-2.9-.3-5.9-.7-8.8-.8-4.1-.1-8.1 0-12.2.2-11.2.4-20.4-3.9-27.7-12.2-2.9-3.3-5.4-6.8-6.9-10.9-3.5-9.4-10.5-14.9-19.6-18-10.4-3.6-21-4.1-31.6-1.4-3.9 1-7.5 2.7-10.6 5.4-2.9 2.5-4 5.5-3 9.2.5 2 1.2 4 1.8 6 2.9 8.1 3.3 16.4 1.7 24.8-1.2 6.3-1.3 12.6.3 18.8 1.9 6.9 5.8 12.6 11.3 17.2 5.8 4.8 12.4 8.1 19.4 10.8 6.8 2.6 13.8 4.6 20.9 6.2 13.4 3.1 24.9 9.6 34.7 19 15.1 14.4 24.6 32.1 29.5 52.3.3 1.1.5 2.1.8 3.1v25c0 .3.5 1-.5 1 .4-9.1.2-18.2-1.8-27.2-4.5-19.4-13.2-36.5-27.2-50.7-10.5-10.7-23-17.8-37.8-21.1-10.3-2.3-20.2-5.5-29.5-10.5-5-2.7-9.6-6-13.5-10.2-6.8-7.4-9.7-16.2-9.3-26.2.1-3.1.6-6.2 1.1-9.3 1.2-7.4.7-14.6-1.7-21.8-.9-2.6-1.6-5.2-2.3-7.8-.8-3.5.3-6.5 2.7-9 3.3-3.5 7.4-5.6 12-6.7 12.4-3.1 24.6-2.4 36.4 2.5 8.1 3.4 14 8.9 17.3 17.3 3.2 8 8.8 14.2 16.2 18.7 3.6 2.1 7.4 3.4 11.6 3.5 4 .1 8 0 12 .1 4.4.1 8.8.3 13.2.5.4 0 .8.2 1.1.3v1.9z"/>
  <path class="st0" d="M436.6-279.5c-5.4 4.9-11.9 7.7-19 9.1-3.8.7-7.6 1.1-11.3 2-2.7.6-5.4 1.6-7.9 2.8-7.7 3.7-12.1 9.8-13.1 18.2-.9 7.6-.4 15.2 1.4 22.6.6 2.6 2.1 5 3.2 7.4.2.5.6.9 1 1.4 4.3 5.3 10.7 6.8 16 .3 5.3-6.3 12-10.5 19.8-13 10.2-3.2 20.3-2.8 30.4.3 7.8 2.4 14.6 6.4 20.9 11.4 5.5 4.4 10.8 9 16.2 13.5 4.8 4 9.8 7.8 15.4 10.5 6.2 3 12.7 4.1 19.6 2.7 6.7-1.4 10.9-5.3 12.6-12 1.3-5.4 1.1-11 .6-16.5-.8-9-1.7-18-2.5-27-.2-1.8-.2-3.7 0-5.5.4-6.8-2.1-12.3-6.8-17-4.3-4.4-9.6-7.4-15.1-10.1-.8-.4-1.5-.9-2.2-1.3h4.8c.7.5 1.3 1.1 2 1.5 4.8 2.7 9.3 5.7 12.9 9.8 4.3 4.9 6.3 10.5 6.3 17.1-.1 6.1.5 12.1 1.1 18.2.7 7.8 2 15.6 1.7 23.4-.1 3-.5 6.1-1.3 9-1.6 6-5.6 10-11.6 11.7-7.9 2.2-15.5 1.2-22.9-2.3-5.6-2.7-10.5-6.4-15.3-10.3-5-4.1-9.9-8.4-14.9-12.5-6-4.9-12.4-9.1-19.7-11.7-11-3.9-22-4.7-33.1-.7-6.9 2.5-12.8 6.5-17.6 12.1-.3.3-.5.6-.8.9-4.4 4.8-10.7 5.2-15.7 1-2.9-2.4-4.8-5.6-6.1-9.1-1.2-3.2-1.8-6.6-2.1-10.1-.6-6.1-1-12.3.2-18.4 1.5-7.7 5.9-13.3 12.7-17.1 5.4-3 11.4-4 17.4-4.8 6.3-.8 12.2-2.7 17.5-6.2.7-.4 1.2-1 1.8-1.5 1.3.2 2.4.2 3.5.2zM680.5 29.1c-10.9 1.1-21.6 3.3-32.7 3.1-10.7-.2-21.2-1.4-31.5-4.4-7.9-2.3-15.7-1.3-23.3 1.4-13.5 4.8-24.8 12.9-34 23.8-1.5 1.8-2.9 3.8-4.2 5.9-2.5 3.8-3.7 8.1-4.2 12.6-.5 5-.7 9.9 0 14.8 1.6 11.2 8.1 18.3 19.1 20.5 4.1.8 8.4 1.3 12.5 1.9 16 2.5 30.9 7.9 44.1 17.6 2.9 2.1 5.9 4.1 8.9 6.1 9.2 6.1 19.3 10.3 29.9 13.4 5.1 1.5 10.1 3.4 15.2 5.2v1.9c-4.9-1.7-9.7-3.6-14.7-5-13.3-3.6-25.4-9.4-36.6-17.4-4.6-3.3-9.4-6.4-14.3-9.2-9.3-5.4-19.5-8.3-30.1-10.2-5.1-.9-10.3-1.5-15.4-2.5-7.4-1.5-13.4-5.1-17.2-11.8-2.1-3.8-3.2-8-3.5-12.4-.4-5.3-.2-10.5.6-15.8.7-4.5 2.4-8.7 5-12.3 11.1-15.7 25.9-26.1 44.6-30.7 6.3-1.5 12.6-1.3 19 .5 11.1 3.2 22.6 4.3 34.2 4 7.1-.1 14-1.1 21-2.2 2.5-.4 5.1-.6 7.6-.8v2zM583 680.5c-1.5-3-2.7-6.2-4.4-9-5-8-11.9-14.1-19.7-19.4-10.5-7.2-21.9-12.6-33.7-17.2-13-5.1-26.1-9.9-39.2-15-8.4-3.3-16.6-7.1-24.2-12.1-5.8-3.8-12-6.6-19-7.7-7.3-1.2-14 .4-20 4.5-4.3 2.9-7.8 6.6-11.1 10.6-1.9 2.3-3.9 4.7-5.7 7.1-4.9 6.7-10.8 12.4-17.2 17.6-11.7 9.6-24.1 18.2-36.9 26.3-4.1 2.6-7.6 5.8-10.7 9.5-1.3 1.5-2.5 3.1-3.7 4.7h-2.4c3-4.3 6.3-8.3 10.2-11.8 1-.9 2.1-1.7 3.2-2.5 12.9-8.3 25.6-16.9 37.6-26.5 7.1-5.7 13.6-11.9 19-19.3 3.6-4.9 7.4-9.6 12-13.7 4.9-4.4 10.3-7.6 16.9-8.5 5.7-.8 11.2.1 16.5 2 4.3 1.5 8.4 3.5 12.2 6 8.2 5.5 17.2 9.5 26.4 13 11.7 4.5 23.5 8.8 35.2 13.4 11.8 4.6 23.3 9.9 33.9 16.8 5.6 3.6 10.8 7.7 15.4 12.6 5.1 5.4 9.1 11.5 11.6 18.6H583zm97.5-752.7c-8.4-.9-16.8-1.9-25.3-2.8-8.7-1-17.2-3-25.5-5.5-7.7-2.3-15.4-4.2-23.5-4.4-9.6-.3-18.8 1.7-27 6.9-5 3.2-10.4 5.7-15.9 7.7-2.3.8-4.5 1.6-6.7 2.6-1.3.6-2.6 1.2-3.8 2.1-5.4 3.9-5.1 11.7.7 15 2.2 1.2 4.7 2 7.2 2.5 4.6.9 9.4 1.2 14 2 3.4.6 6.7 1.6 9.9 2.7 3.8 1.3 7.1 3.7 9.8 6.8 10.1 11.9 23.3 17.2 38.5 18.6 2.4.2 4.8.1 7.2-.1 7-.7 13.7.3 20.1 3.3.3.1.6.3.9.4 6.5 3.1 12.8 6.6 19.6 9v1.9c-6.3-2-12.1-5.1-17.9-8-4.4-2.2-9-4.3-14-4.7-2.6-.2-5.3-.2-7.9 0-14 1-26.8-2.4-38.3-10.4-2.9-2-5.5-4.4-7.8-7-5.5-6.4-12.5-9.5-20.6-10.7-4.6-.7-9.2-1.1-13.8-1.9-2.6-.5-5.1-1.3-7.4-2.5-4.8-2.5-6.8-7.6-5.3-12.9.7-2.6 2.4-4.5 4.6-5.9 2-1.2 4.3-2.2 6.5-3.1 3-1.2 6.2-2.2 9.2-3.5 3.2-1.4 6.3-3 9.3-4.9 7-4.4 14.5-6.9 22.7-7.5 9.2-.8 18 .8 26.7 3.2 6.7 1.8 13.4 3.8 20.2 5.1 6.9 1.3 13.9 1.9 20.9 2.8l12.9 1.5c-.2.5-.2 1.1-.2 1.7zm-960 393.2c.6.6 1.3 1.1 1.9 1.7 6 7.4 13.1 13.6 21.8 17.7 14.9 7 29.6 6.2 43.9-1.6 6.8-3.7 12.7-8.5 18.6-13.5 3.2-2.7 6.3-5.4 9.5-8.1 1.5-1.3 3.2-2.4 4.8-3.5 3.3-2.2 6.9-3.5 11-3.4 6.2.1 10.5-4.5 10.5-10.7 0-4.7-2.4-8-6.5-10.2-4.4-2.3-9.1-2.7-14-2.3-5.7.5-11.1 2-16.7 3.4-5 1.2-9.9 2.4-15 3.3-4 .7-8.1.6-12.1-.6-3-.9-5.4-2.6-8-4.3-8.1-5.4-16.2-10.9-24.4-16.1-6.8-4.3-14-7.7-21.7-10-1.2-.4-2.5-.5-3.7-.7v-2.4c15.9 4.1 29.5 12.9 42.8 22.1 3.2 2.2 6.5 4.4 9.7 6.7 5 3.6 10.5 4.7 16.4 3.6 5.8-1 11.5-2.6 17.3-3.8 4.8-1 9.5-2.1 14.3-2.8 4.1-.7 8.2-.4 12.1.8 5.3 1.5 9.4 4.6 10.8 10.2 2.1 8.4-3.7 16-11.9 15.9-3.8-.1-7.1 1-10.1 3.2s-6 4.6-8.9 6.9c-5 4.1-9.9 8.4-15 12.3-6.6 5.1-13.9 9.1-22.1 11.1-13 3.1-25.2 1.1-36.8-5.5-6.5-3.7-11.9-8.6-16.8-14.2-.5-.6-1.3-1.1-1.9-1.6.2-1.4.2-2.5.2-3.6zm0-503.6c6.7.1 13.2-1.1 19.7-2.6 12.5-3 24-8.2 34.7-15.3 8.7-5.8 17.6-11.1 27.1-15.4 13-5.9 26.7-8.8 41-8.2 6.9.3 13.7.9 20.6 1.5 12.6 1.1 25.2 2 37.8.6 18.6-2.1 33-11.2 43.8-26.4 6.3-8.9 10.3-18.7 12.9-29.2.2-.6.1-1.3.1-1.9h2.4c-1.3 4.3-2.4 8.6-3.9 12.8-4.7 12.9-11.7 24.1-22.4 32.9-10 8.2-21.5 12.8-34.4 13.8-10.8.9-21.6.5-32.3-.4-9.2-.7-18.3-1.5-27.5-1.9-12.8-.5-25 2.6-36.7 7.8-9.2 4.1-17.9 9.2-26.3 14.8-10.1 6.8-20.9 12-32.6 15.3-7.8 2.2-15.8 3.4-23.9 3.7-.1-.6-.1-1.2-.1-1.9zm66.2 863.1c-.6-5.1-1.1-10.3-2-15.4-3.3-18.3-8.4-36.1-15.8-53.2-2.8-6.4-6-12.6-10-18.3-2.3-3.3-4.8-6.4-7.9-9-2.6-2.1-5.5-3.5-8.9-3.6-.8 0-1.5.1-2.2.1-.7 1.6-.1 2.8.5 3.9 1.5 3.3 3.2 6.6 4.8 9.9 3.1 6.4 5.6 12.9 6.7 19.9.7 4.4 1 8.9.2 13.4-1.8 9.7-.5 19.1 2.4 28.4 1.1 3.5 2.2 7 3.1 10.6 1 3.8 1.6 7.7.9 11.6-.1.5 0 1.1 0 1.7h-2.4c1.2-3.3 1-6.7.3-9.9-1.1-4.7-2.5-9.4-3.9-14.1-2.1-7.3-3.5-14.6-3-22.2.2-2.8.7-5.5 1-8.3.6-5.7-.2-11.3-1.8-16.8-1.5-5.4-3.8-10.5-6.3-15.5-1.2-2.4-2.3-4.7-3.4-7.1-.5-1.1-.9-2.2-1.1-3.4-.5-2.7.6-3.9 3.3-4 2.5-.1 4.9.4 7.2 1.5 2.8 1.3 5.1 3.3 7.2 5.5 5.3 5.7 9.2 12.3 12.5 19.2 9.7 20.2 15.8 41.5 19.2 63.5.6 3.9 1 7.8 1.4 11.7-.7-.1-1.3-.1-2-.1z"/>
  <path class="st0" d="M680.5 57.9c-4.2.1-8.3.3-12.5.3-11.4 0-22.8-.7-34.2-1.6-5.8-.4-11.6-.9-17.5-1.1-6.3-.2-12.3 1-17.6 4.5-5.5 3.6-8.9 8.6-9.7 15.3-.5 4 .8 7.1 4.4 9 2.3 1.2 4.7 2.1 7.1 2.9 6.4 2.1 12.8 3.9 19.1 6.2 10.2 3.7 19.2 9.5 27.1 16.9 6.4 6 14 8.3 22.5 7.3 3.8-.4 7.5-1.5 11.2-2.3v1.9c-7 2.3-14.2 3.2-21.5 1.7-4.9-1-9.2-3.2-12.8-6.7-10.8-10.4-23.7-16.9-38-21-3.7-1.1-7.4-2.2-11-3.4-1.7-.6-3.3-1.3-4.8-2.1-4.3-2.4-5.8-6.2-5.2-10.9 1.1-8.8 6.2-14.7 14-18.4 6-2.9 12.4-3.2 19-2.8 13.3.8 26.6 1.7 40 2.3 6.8.3 13.6 0 20.4-.1v2.1zM557.6 680.5c-4.3-5-9.8-8.4-15.8-11.1-8.9-4.1-18.3-6.7-27.7-9.1-12.5-3.2-24.9-6.3-37.4-9.6-6.8-1.8-13.3-4.5-19.7-7.5-6-2.9-12.3-4.6-19-4.4-8 .2-15.1 3-21.8 7.3-6.9 4.5-12.8 10.1-18.2 16.3-5.1 6-9.9 12.1-14.8 18.2h-2.4c6.1-8.1 12.3-16.1 19.4-23.5 5.8-6.1 12.2-11.5 19.7-15.4 11.3-5.9 22.9-6.3 34.7-1.6 1.9.7 3.7 1.6 5.5 2.4 9.9 4.6 20.4 7.5 30.9 10.2 12.4 3.2 24.9 6.3 37.3 9.6 6.9 1.9 13.5 4.5 19.7 8.1 4 2.3 7.8 5 10.9 8.5.4.5.7 1 1 1.6h-2.3zm122.9-419.1c-8.5-1.7-17.3-2.1-25.7-4.3-7.6-2-14.3-5.4-20.1-10.7-1.7-1.5-3.3-3-4.9-4.6-3.7-3.4-7.8-6.2-13-6.6-4-.3-7.4 1.2-10.2 3.9-1.3 1.3-2 3.1-1.1 4.8.9 1.9 2 3.8 3.3 5.5 3.1 3.8 7 6.8 11.1 9.5 8.9 5.8 18 11.3 27 16.9 3.6 2.3 7.3 4.6 10.8 7.1 3.1 2.1 5.8 4.8 8.2 7.7 2.8 3.6 4.8 7.5 5.9 11.9 1.6 6.4 4.6 12.2 8.7 17.4v3.4c-4.7-5.8-8.5-12.2-10.3-19.5-1.7-6.8-5.3-12.2-10.5-16.8-4-3.6-8.6-6.3-13.2-9.1-8.8-5.4-17.6-10.7-26.3-16.4-4.1-2.7-7.8-6.1-11.5-9.4-1.7-1.5-3.1-3.5-4.2-5.5-2.3-4.1-1.5-7.4 2.3-10.2 4.5-3.4 9.5-3.9 14.8-2.1 3.4 1.2 6.3 3.1 8.9 5.6 2.5 2.3 4.9 4.6 7.5 6.7 6.1 5.2 13.2 8 21 9.5 5.3 1 10.6 1.6 15.9 2.4 1.9.3 3.8.6 5.7 1-.1.7-.1 1.3-.1 1.9zm-95.1-540.9c3.9 11.2 3.3 22.5.3 33.7-1.3 4.7-2.9 9.3-3.9 14.1-2.3 11.8-1.4 23.2 4.1 34.1 2.3 4.5 5.3 8.4 8.8 11.9 16.2 16.8 35.3 29.2 57.5 36.4 8.4 2.7 17 4.4 25.9 4.7.8 0 1.6-.1 2.4-.1v1.9c-4-.3-8-.2-11.9-.8-25.2-3.8-46.7-15.4-65.8-31.7-4.3-3.7-8.3-7.8-12.1-12-6.9-7.6-10.5-16.7-11.6-26.8-1-9.3.2-18.3 3.2-27.1 2.3-6.9 3.8-14 3.9-21.4 0-4.7-.5-9.4-2-13.9-.3-1-.5-2-.7-3h1.9zm-764.6 960c-1.8-2.6-3.6-5.2-5.4-7.9-14.6-21.3-24.8-44.4-31-69.5-3.2-12.9-7-25.6-12.6-37.7-3.9-8.5-8.6-16.4-15-23.3-8-8.6-17.8-14-29.2-16.3-2.3-.5-4.7-.6-7.1-.9V523c6.6.3 12.9 2 19 4.6 9.2 3.9 16.6 10.1 22.7 18 6.8 8.8 11.5 18.6 15.4 28.9 4 10.3 6.7 21 9.5 31.7 6.9 26.4 18.4 50.5 34.8 72.4.5.6.8 1.3 1.2 2-.7-.1-1.5-.1-2.3-.1zM680.5-56.8c-10.2-.3-20.2-1.9-30-4.7-7.6-2.1-15.2-4.2-22.9-6.2-4.1-1-8.3-1.7-12.6-1.2-1.9.2-3.8.7-5.5 1.5-4.5 2.4-5.2 7.6-1.8 11.3 2.1 2.4 4.9 3.9 7.7 5.2 6.7 3.2 13.8 5.5 21 7.2 12.9 3 25.2 7.7 37 13.6 2.3 1.1 4.7 1.9 7 2.9v2.4c-5.2-2.4-10.5-4.7-15.7-7.2-9-4.4-18.6-7.1-28.3-9.7-6.5-1.7-13-3.9-19.3-6.3-3.1-1.2-5.9-3.1-8.8-4.9-1.1-.7-1.9-1.7-2.7-2.6-4.2-5.1-1.4-11.5 2.7-13.6 1.8-.9 3.9-1.5 5.9-1.7 6.1-.7 12.1.6 18 2.1 6.4 1.7 12.8 3.5 19.1 5.4 8.7 2.5 17.6 3.8 26.6 4.4.8.1 1.6 0 2.4 0 .2.8.2 1.5.2 2.1z"/>
  <path class="st0" d="M680.5-180.6c-5.3-.3-10.7-.4-16-1-14.3-1.6-27.7-6-40.4-12.7-6.4-3.4-12.6-6.9-17.9-11.9-4.9-4.6-8.4-10-9.3-16.8-.9-6.3.6-12.2 3.5-17.8 1.1-2.2 2.5-4.2 3.8-6.4 1.1-1.8 2.3-3.7 3.3-5.6 2.7-5.5 2.5-11.2.8-16.8-1-3.4-2.7-6.6-4-10h2.4c1 2.6 2.2 5.1 3 7.8 1.5 4.6 2.1 9.3 1.3 14.2-.5 3.3-1.9 6.2-3.7 9-1.4 2.3-2.9 4.6-4.3 6.9-1.9 3.2-3.3 6.7-4.1 10.4-1.7 8.4 1 15.6 6.7 21.8 2.9 3.1 6.3 5.6 9.9 7.9 14.7 9.4 30.6 15.6 47.8 17.9 5.7.7 11.5.8 17.2 1.1v2zm-528 861.1c-.2-5-1.3-9.8-2.7-14.5-1.7-5.9-4.1-11.4-7.4-16.5-4.4-6.7-10.1-11.7-18-13.8-5.8-1.5-11.6-1.2-17.3.4-10.1 2.8-19.1 7.8-27 14.5-7 5.9-11 13.7-13 22.6-.5 2.4-1 4.8-1.4 7.3h-1.9c.5-2.4.9-4.9 1.4-7.3 2.6-12.2 9.1-21.8 19.6-28.7 7.3-4.8 15-8.9 23.6-10.8 8.3-1.8 16.4-1.3 23.9 3 5 2.9 8.9 7 12 11.9 5.2 8.2 8.2 17.1 9.7 26.6.3 1.7.4 3.5.6 5.2-.8.1-1.5.1-2.1.1z"/>
  <path class="st0" d="M649.3-279.5c.8 4.3 1.8 8.6 2.3 12.9 1.1 10.3.2 20.5-2.3 30.7-1 4.4-1.7 8.8-1 13.3.2 1.2.4 2.4.9 3.5 1.2 3.2 3.6 5 7.1 5.1 7.6.3 12.8-3.4 14.7-10.7.8-3.1 1.2-6.3 1.4-9.4.4-5.2.6-10.5.9-15.8.4-6 1.8-11.8 4.8-17.1.9-1.6 1.6-3.4 2.4-5.2v5.3c-2.8 3.9-4.2 8.4-4.8 13.1-.5 4.2-.7 8.4-1.1 12.6-.4 5.1-.9 10.2-1.4 15.2-.1.6-.3 1.2-.4 1.9-2.5 9.5-9.6 12.3-17 12-4.2-.1-7-2.3-8.5-6.2-1.1-2.9-1.5-5.9-1.2-9 .3-3.3.7-6.5 1.5-9.7 3.2-13.5 3.3-27 .3-40.6-.1-.6-.3-1.2-.5-1.8.6-.1 1.2-.1 1.9-.1zm-825.6 0c3.2 3.8 6.2 7.7 9.6 11.3 6.4 6.9 13.5 13.2 21.5 18.2 6.2 3.8 12.6 6.9 19.9 7.8 6.8.8 13-.7 18.4-5.1 10.2-8.3 17.7-18.8 22.9-30.8.2-.4.2-.9.3-1.4h2.4c-4.1 10.1-9.7 19.3-17.3 27.1-2.5 2.6-5.2 5-8 7.2-5.7 4.5-12.4 5.7-19.5 4.7-8.5-1.2-16-5-22.9-9.8-10.4-7.2-19.2-16.1-27.2-25.9-.9-1.1-1.7-2.3-2.6-3.5.9.2 1.7.2 2.5.2zM-279.5-26.6c1.8.6 3.6 1.3 5.4 1.8 11.2 3.3 22.2 2.7 32.6-2.6 9.2-4.6 13.3-12.6 13.7-22.5.3-5.8-2.8-9-8.5-9.9-4.8-.8-9.5.1-14.3.8-4.1.6-8.2 1.5-12.3 2.1-5.6.8-11.1.5-16.7.1v-1.9c8.6.9 17 .2 25.5-1.6 4-.8 8-1.3 12.1-1.6 2.3-.2 4.6 0 6.9.4 5.8 1 9.2 4.8 9.2 10.8-.1 11-4.6 19.6-14.5 25-4.7 2.6-9.8 3.8-15.1 4.5-8.4 1.1-16.4-.1-24.1-3.3.1-.8.1-1.4.1-2.1zm37.4-252.9c-.6 5.6-2.8 10.4-6.7 14.5-1.1 1.2-2.3 2.2-3.4 3.4-4 4.2-4.2 9.6-.6 14.1 6 7.7 19.8 11.8 30.5 3.2 5.3-4.3 8.2-9.8 9-16.6.7-6.2.8-12.4 0-18.6h1.9c.5 6.1.5 12.1 0 18.2-.8 8.6-4.5 15.4-11.8 20.1-9.8 6.4-23.9 4.1-31-4.9-4.2-5.3-4-11.5.5-16.6 1.3-1.5 2.8-2.8 4.2-4.3 3.1-3.6 5-7.8 5.5-12.5h1.9zm228 0c-.5 4.1-1.1 8.2-1.5 12.3-.1 1.3-.1 2.7.1 4.1.6 6.3 4.3 10 10.7 10.5 4.5.3 8.7-.7 12.9-2 7.1-2.3 13.7-5.6 20-9.6 2.9-1.8 5.2-4.3 6.9-7.2 1.5-2.6 2.8-5.4 4.1-8.1H41c-2.1 6.6-5.5 12.5-11.4 16.4-8 5.4-16.6 9.5-26.1 11.5-2.8.6-5.7.8-8.5.7-7.2-.3-11.8-4.8-12.5-12-.4-3.7.1-7.3.6-11 .3-1.9.5-3.8.8-5.7.7.1 1.4.1 2 .1zm528.5 960c-2.8-1.1-5.5-2.4-8.4-3.4-10.8-3.8-21.9-6.4-33.1-8.6-3.9-.8-7.8-1.5-11.8-1.9-5.8-.5-11.1 1.3-15.4 5.3-3 2.8-5.8 5.7-8.6 8.6h-3.4c2.8-2.7 5.8-5.2 8.5-8.1 6.3-6.6 13.8-8.9 22.6-7.4 16.5 2.9 32.9 6.4 48.5 12.7 2 .8 3.8 1.9 5.7 2.8h-4.6zm-393.1 0c-2-6.9-6.9-11.3-12.9-14.8-.9-.5-1.9-.9-2.8-1.2-3.6-1.2-6.5-.3-8.4 3-1 1.7-1.8 3.6-2.3 5.5-.7 2.4-1 5-1.5 7.5h-1.9c.7-3.3 1.3-6.6 2.1-9.8.3-1.1.8-2.2 1.4-3.3 2.6-5 6.9-6.7 12.1-4.4 7.8 3.5 13.8 8.9 16.1 17.5h-1.9zm559.2-489.6c-3.6-1.1-7.1-1-10.4.8-3.9 2.2-4.8 5.7-2.2 9.4 2.7 3.9 6.4 6.6 11 8 .5.2 1.1.3 1.6.5v1.9c-4.2-.9-7.9-2.6-10.9-5.6-1.4-1.3-2.7-2.8-3.7-4.4-2.6-4.3-1.5-8.7 2.9-11.3 3.7-2.2 7.7-2.5 11.8-1.3-.1.7-.1 1.3-.1 2zm-960 453.1c.3.5.7.9.9 1.4 3.6 11 5.1 22.2 3.3 33.7-.1.5-.2.9-.4 1.4h-1.9c.1-.5.3-.9.4-1.4 1.4-9 .8-17.8-1.4-26.6-.1-.5-.6-.9-.9-1.3V644zm0-434.4c1.5-.1 3-.1 4.5-.4 3.9-1 5.9-4.3 4.9-8.2-1.3-5-4.7-8.2-9.4-10.1V189c6 1.8 9.9 5.8 11.3 11.9 1.3 5.6-2.5 10.2-8.4 10.6-1 .1-1.9.1-2.9.1v-2zm3.8-489.1c-1 3.3-1.9 6.7-2.9 10-.1.4-.6.7-.9 1v-5.8c.3-.4.8-.7 1-1.2.4-1.3.7-2.7 1-4.1.5.1 1.2.1 1.8.1zM265.5 63.4c-9.8-.2-17.7-1.8-24.9-5.7-6.7-3.6-11.7-8.6-13.8-16.1-1.4-5-1.2-10 .2-14.9 2.4-8.2 4.1-16.6 4.9-25.1.6-5.9 0-11.8-1.4-17.6-1.4-5.5-2.8-11-3.8-16.6-.5-2.7-.5-5.6-.3-8.3.4-5 3.2-8.4 8.1-10 5.4-1.7 10.9-1.2 16.3.2 6.4 1.7 12.2 4.8 17.6 8.5 8.2 5.5 15.5 12.1 22.2 19.3C298-15 303-5.7 305.2 5c1.4 7 .5 13.6-3.5 19.7-2.5 3.7-4.3 7.9-6.4 11.8-2.3 4.3-4.5 8.7-7 12.8-1.6 2.6-3.5 5-5.7 7.1-5.1 5.3-11.5 7.4-17.1 7zM234.4-3.2c-.5 4.5-.8 9.1-1.6 13.5-1.1 6-2.7 11.8-4.1 17.7-2 8.4-.6 16 5.5 22.4 2.6 2.8 5.7 4.8 9.2 6.4 7.1 3.3 14.6 4.5 22.4 4.5 6.3 0 11.6-2.3 15.9-6.7 1.6-1.6 3.1-3.4 4.4-5.4 2.2-3.5 4.2-7.2 6.2-10.8 2.7-5 5-10.2 8-15 3.6-5.7 4.5-11.7 3.3-18.1-2-10-6.8-18.8-13.6-26.3-6.5-7.1-13.6-13.5-21.5-19.1-6.1-4.3-12.6-7.9-20-9.5-4.3-.9-8.5-1.2-12.8.1-4.4 1.3-6.9 4.2-7.2 8.8-.2 2.4-.2 4.8.3 7.2.8 4.3 1.8 8.6 2.9 12.9 1.1 5.8 2.7 11.5 2.7 17.4zm103.8 338.4c-.1-3.8 1.2-6.8 3.5-9.3 9.5-10.2 20.7-17.6 34.8-19.7 2.7-.4 4.5.9 5 3.6.4 2.6 0 5.1-.7 7.6-3.3 10.7-8.7 20.2-16.8 28-1.9 1.8-4.3 3.4-6.7 4.6-4.5 2.2-9.5 1.6-13.1-2.5-1.5-1.8-3-3.6-4.1-5.5-1.4-2.1-2.1-4.5-1.9-6.8zm41.6-23.1h-.2v-1.2c-.2-2.4-1.1-3.1-3.4-2.6-2.4.5-4.8 1.1-7.2 1.8-5.8 1.5-11 4.1-15.7 8l-8.4 7.2c-.8.7-1.5 1.5-2.1 2.3-3.4 4.3-3.7 8.9-1.1 13.6 1 1.8 2.4 3.4 3.7 5 2.9 3.3 6.6 4.2 10.6 2.3 2.3-1.1 4.5-2.5 6.3-4.2 8.1-7.6 13.4-17 16.6-27.6.5-1.5.6-3.1.9-4.6zm164-318.6c5.4.3 10.4 1.4 14.9 4.2 1.3.8 2.5 1.8 3.4 2.9 1.4 1.7.7 3.3-1.4 4-2.1.6-4.3.3-6.4 0-4.1-.6-8-1.7-11.5-3.9-1.3-.8-2.7-1.8-3.7-3-1.6-1.8-1-3.5 1.4-4 1.2-.1 2.3-.1 3.3-.2zm17 9c-2.6-4.7-16-8.8-20.2-6.3 3 4.3 14.2 7.9 20.2 6.3zm-714.1 25.7c.1-7.5.3-15-.8-22.5-1.2-8.2-4.7-15-11.7-19.8-2.9-2-5.8-4.1-8.4-6.4-4.7-4.2-7.8-9.5-8.9-15.8-1-5.6.7-10.4 4.5-14.6 3.3-3.6 7.5-5.7 12-7.3 5.8-2.1 11.9-3 18-3.9l26.1-3.6c8.3-1.1 16.7-2.1 25-3.2 13.5-1.8 27-3 40.3-5.8 4.9-1 9.7-2.5 14.5-4 17.2-5.4 33.5-3.1 48.8 6.2C16.2-66.3 22.9-57.4 26.2-46c2 7 3.8 14 5.7 21 1.4 5.1 3.2 10 6.1 14.6C40.8-6 44.4-2.5 49 .1c7.1 4 14.8 6.3 22.5 8.7 5.5 1.7 11 3.4 16.4 5.3 2.2.7 4.3 1.8 6.3 2.8 9.7 5 15.4 13 16.8 23.9.8 6 1.2 12.1 2 18.1.4 3.6 1 7.3 1.7 10.9 2 9.4 7.1 17 14.3 23 6 5.1 12.3 9.7 18.6 14.4 6.5 4.9 13.2 9.7 19.1 15.3 2.3 2.2 4.6 4.4 6.7 6.9 5.6 6.6 7.7 14.3 6.8 22.8-.5 5-3.5 8.7-7.5 11.5-4.3 3.1-9.2 4.5-14.4 4.8-7.3.5-14.4-.7-21.3-2.9-15.1-4.9-28.9-12.4-41.7-21.8-7.4-5.5-12.8-12.7-16.4-21.2-3-7.2-7.8-12.8-14.6-16.6-1.5-.9-3.1-1.7-4.6-2.6-2.2-1.2-4.4-2.3-6.5-3.6C45.4 95.4 39.1 89.4 34 82c-1.9-2.8-3.9-5.7-6-8.4-6-7.7-14.1-12.5-24-14.1-13.2-2.2-25.4.8-36.4 8.5-5.1 3.6-8.7 8.5-11 14.2-.8 2.2-1.6 4.3-2.3 6.6-3 9.8-9.9 14.9-19.7 16.7-9.5 1.7-18.8.9-28-1.5-19.3-5.2-35.7-15.1-48.3-30.8-7.8-9.8-11.7-21-11.6-33.5V28.2zm2.2-.7h-.4c0 2.7-.1 5.4 0 8.2.2 4.2.3 8.5.8 12.7 1.1 8.8 5 16.5 10.4 23.4 12.3 15.5 28.4 25.3 47.4 30.4 8.8 2.4 17.8 3.1 26.8 1.5 9.2-1.6 15.8-6.3 18.5-15.5.8-2.5 1.7-5 2.7-7.4 2.3-5.8 6-10.5 11.1-14.1 11.5-8.2 24.3-11.1 38.2-8.9 8.5 1.4 16.1 5 21.9 11.5 3.2 3.5 6.1 7.4 8.8 11.4 5.2 7.7 11.8 13.9 19.9 18.4l9.9 5.4c7.1 3.9 12.4 9.6 15.5 17.1 4.2 10.1 11 17.9 19.9 24 9 6.1 18.5 11.4 28.6 15.6 6.8 2.8 13.8 5 21.2 5.8 5.5.6 10.9.4 16.1-1.7 9-3.5 13.9-10.2 11.8-21-1.4-7.5-5.6-13.3-11-18.4-6.9-6.6-14.6-12.2-22.3-17.9-4.9-3.7-9.9-7.3-14.7-11.2-4.6-3.7-8.7-8-11.9-13.1-4.5-7.1-6.2-15-7-23.2-.6-6.2-1.2-12.4-1.9-18.6-1.3-10.8-7-18.5-16.7-23.3-2.1-1.1-4.3-2-6.6-2.8C82 14.4 78 13.2 74 11.9c-7.7-2.4-15.4-4.7-22.8-8.1-8-3.9-14-9.8-17.5-18.2-1.6-3.7-2.9-7.6-4-11.5-1.7-6-3.2-12.1-4.9-18-2.5-8.7-6.6-16.5-13.8-22.3-16.1-13-34.2-16.7-54-10.2-9 2.9-18.2 4.8-27.6 6.1-10.5 1.4-20.9 2.7-31.4 4-11.8 1.5-23.6 3-35.4 4.7-7.3 1-14.6 2.1-21.8 3.4-5.2.9-10.2 2.6-14.6 5.7-7 5-9.8 12-6.1 20.8 1.9 4.4 4.6 8.2 8.4 11.2 2.5 2 5.1 3.8 7.7 5.7 5.3 3.9 8.8 9 10.4 15.4.6 2.6 1.2 5.3 1.4 8 .5 6.2.7 12.5.9 18.9zm-13.4 343.7c-3.1-.2-6-.7-8.6-2.3-3.2-1.9-4.7-4.9-4.2-8.2.4-2.5 2.3-4.4 4.7-4.2 4.5.5 8.5-1.1 12.4-2.9 1.5-.7 2.8-1.5 4.3-2.1 1.3-.5 2.7-1 4.1-1.2 2.4-.3 4 1 4.2 3.5.1.9.1 1.8-.1 2.6-1.3 6.3-7 13.6-15 14.6-.7.2-1.3.2-1.8.2zm-.2-1.9c.5 0 .9 0 1.3-.1 7.5-.7 13-7.9 14-13.6.1-.5.1-1 0-1.4-.2-1.4-.8-2.1-2.2-1.8-1.5.3-3 .9-4.5 1.5-2.4 1-4.6 2.2-7 3.1-2.9 1.1-5.9 1.9-9.1 1.5-1.7-.2-2.9.8-3.2 2.6-.4 2.3.6 4.1 2.3 5.4 2.4 2 5.4 2.6 8.4 2.8zM503 349.5c3.1.4 6.9.6 10.5 1.5 10.8 2.6 17 9.7 19 20.5.8 4.1 1.1 8.3 2 12.3 3.2 13.5 10.4 24.5 21.8 32.5 7.4 5.1 15.7 7.7 24.8 7.8 3.3 0 6.8-.3 10 .2 12.4 1.9 21.4 8.4 26.5 19.9 1.3 3 1.8 6.3 1.3 9.6-.7 4.5-3.4 6.9-7.8 6.8-2.8-.1-5.6-.6-8.2-1.3-6.1-1.8-12-3.9-18.1-5.7-6.4-1.9-12.8-3.5-19.6-2.9-3.6.3-7.1 1.1-10.7 1.5-12.1 1.4-24.1.8-35.7-3.6-8.4-3.2-15.1-8.3-20-16-6.3-10-15.6-16.6-26.2-21.4-7.4-3.3-15.1-5-23.2-5.2-3.3-.1-6.5-.7-9.6-2-1.7-.7-3.4-1.5-4.9-2.5-4.6-3.2-6.1-7.4-4.2-12.7 2.1-6.1 5.7-11.4 10.2-16.1 7.6-7.7 16.8-12.6 26.9-16.1 7.9-2.7 15.9-4.9 24.2-6 3.5-.5 7-.7 11-1.1zm-.6 1.9v.2c-1.7.1-3.4.2-5 .3-10.3.9-20.1 3.5-29.8 6.9-9.7 3.4-18.5 8.4-25.7 15.9-4.1 4.3-7.2 9.2-9.2 14.7-1.5 4.3-.4 7.7 3.3 10.3 1.3.9 2.7 1.7 4.2 2.3 3 1.2 6.1 1.8 9.3 2.1 2.8.2 5.6.3 8.4.7 7.3 1 14.1 3.5 20.6 6.9 9.1 4.9 16.9 11.2 22.5 20 4 6.4 9.5 10.9 16.4 13.9 11.8 5.2 24.1 5.9 36.7 4.6 3.7-.4 7.3-1.3 10.9-1.6 6.6-.6 13.1.7 19.4 2.6 6.5 2 12.9 4.2 19.4 6.1 2.3.7 4.7 1.1 7 1.3 3.9.2 6-1.6 6.5-5.5.6-4.3-.7-8.1-2.8-11.6-7-11.4-17.4-16.4-30.5-15.8-9.7.4-18.6-1.7-26.7-6.8-12.9-8.1-20.7-19.9-24.4-34.6-1-3.9-1.3-8-2-12.1-1.8-10.8-8.5-17.7-19.2-19.8-3.1-.4-6.2-.6-9.3-1zM198.1 215.8c7.2-.3 13.9 1.8 19.5 7 6.2 5.7 10.5 12.4 11.5 20.9.3 2.2.1 4.5-.4 6.7-1.3 6-7.2 10.9-13.3 11.4-2.3.2-4.5-.4-6.3-1.9-1.7-1.4-3.3-2.8-4.8-4.4-5.1-5.3-11.4-8.7-17.8-12-4.3-2.2-8.7-4.5-12.9-6.9-2.2-1.3-4.1-3-6.1-4.6-.7-.5-1.2-1.3-1.6-2.1-1-1.9-.7-4 .9-5.5.8-.8 1.7-1.4 2.7-1.9 7.1-3.2 19.4-6.9 28.6-6.7zm-.3 1.8c-2.1.2-4.3.3-6.4.6-7.2 1-14.1 3.1-20.6 6.1-4.3 2-4.6 4.3-.9 7.3 2 1.7 4.2 3.2 6.5 4.5 4.5 2.5 9.1 4.9 13.8 7.3 6.1 3.1 11.8 6.8 16.5 11.8 1.1 1.2 2.3 2.2 3.6 3.2 1.3 1.1 2.9 1.7 4.6 1.6 5.3-.2 10.9-4.6 12-9.8.5-2.1.6-4.3.3-6.4-.7-6.3-3.7-11.6-7.8-16.4-5.8-6.6-12.8-10.1-21.6-9.8zm-227.2-54.9c4.6.3 8.9 1.3 13 3.4l5.7 3c4.4 2.3 9.1 3.4 14 3.7 3.3.2 6.7.7 9.9 1.4 5.8 1.3 10.7 4.2 14.5 8.8 2.7 3.2 5.3 6.6 7.6 10.2 2.7 4.2 6 7.9 10.1 10.8 6.7 4.9 13.6 9.6 20.4 14.3 7.1 4.9 14.3 9.7 21.3 14.8 2.3 1.6 4.3 3.6 6.3 5.5 1.2 1.2 2.2 2.6 2.9 4.1 1.3 2.5.2 5-2.4 6.1-1.5.6-3.1.7-4.7.3-3.5-.7-6.7-2.2-9.8-3.9-6.3-3.4-12.5-6.8-18.8-10.1-3.3-1.7-6.9-3.1-10.6-3.6-2.4-.3-4.8-.4-7.1-.1-5.5.6-10.9.5-16.1-1.1-9.7-3-16.5-9.3-20.3-18.6-4.1-10.1-13.7-16.6-24.7-16.6-3.1 0-5.8.9-8.3 2.7-5.2 3.8-10.9 6.7-17.3 8-1.6.3-3.2.4-4.8.4-4.2-.1-6.8-2-7.8-6.1-1.1-4.6-1.6-9.3-1.2-14 .1-1.7.4-3.5.8-5.2 2-8.6 7.1-14.2 15.7-16.3 3.9-.9 7.8-1.3 11.7-1.9zM37.1 230c1.8-.2 3.7-.5 5.5-.5 2.7 0 5.4-.1 8.1.2 4 .5 7.7 2 11.3 3.9 5.9 3.1 11.6 6.3 17.5 9.4 2.7 1.4 5.5 2.7 8.3 3.7 1.4.5 3.2.6 4.7.4 2.3-.4 3-2.1 1.9-4.1-.4-.8-1-1.7-1.7-2.3-2.2-2.1-4.3-4.3-6.8-6.1-7.8-5.6-15.8-10.9-23.7-16.4-6.4-4.4-12.7-8.9-18.9-13.5-3.6-2.7-6.6-6-9-9.8-2.1-3.3-4.4-6.5-6.9-9.5-4.5-5.7-10.5-9-17.7-10-2.3-.3-4.6-.7-6.9-.8-5.6-.2-10.8-1.9-15.8-4.5-3-1.6-6-3.2-9.1-4.2-6.5-2-13-1.1-19.4.7-7.1 2-11.4 6.8-13.3 13.8-1.7 6.4-1 12.9.3 19.2.6 2.7 2.5 4.2 5.2 4.5 1.4.1 2.9.1 4.3-.2 6.4-1.2 12.1-4 17.3-7.9 2.3-1.7 4.7-2.7 7.5-2.9 3.4-.3 6.7 0 10 1 8.2 2.7 14.9 7.2 18 15.6 4.4 12.2 15.4 20.3 29.3 20.3zm-217.4-6.6c-2.7-.4-5.4-.6-8-1.3-4.4-1.1-7.4-3.8-8.5-8.5-1.5-6.4-5.2-11.4-10.1-15.6-1.9-1.6-3.8-3.1-5.7-4.7-4.9-4.1-4.3-9.4 2.4-11.3 5.9-1.7 11.9-2.9 18.2-2.5 5.4.3 10.2 2.1 14.7 5.2 4 2.8 8.4 5.2 12.7 7.7 3.5 2 7.1 3.6 10.6 5.6 1.9 1 3.7 2.3 5.3 3.6 4.3 3.6 4.3 7.5 0 11-2 1.7-4.3 3.1-6.6 4.3-7.9 3.9-16.2 6-25 6.5zm-1-2.1c10.7-.5 19.8-2.9 28.2-7.9 1.4-.8 2.6-1.8 3.8-2.9 2.6-2.5 2.6-4.5-.1-6.9-1.6-1.4-3.4-2.7-5.3-3.7-3.2-1.8-6.5-3.5-9.7-5.2-5.3-2.7-10.5-5.5-15.2-9.1-2.8-2.1-6-3.3-9.5-3.8-7.1-1.2-14 0-20.8 2.2-4.8 1.5-5.4 4.3-1.6 7.8 2.1 1.9 4.4 3.7 6.6 5.5 5 4.3 8.4 9.6 10 16 .9 3.7 3.2 5.9 6.6 6.9 2.6.6 5.3.8 7 1.1zm353.2 82c-5.4-.3-10.1-1.6-14.4-4.2-1.5-.9-3-2.1-4.2-3.5-1.6-1.9-.9-3.7 1.6-4.2 1-.2 2.1-.2 3.1-.1 4.8.5 9.4 1.8 13.6 4.3 1.6.9 3 2.1 4.2 3.5 1.8 2.1 1.1 3.8-1.6 4.1-.9.1-1.9.1-2.3.1zm2.7-2.3c-2.7-4.7-15.3-9.2-19.9-7.2 2.1 4.5 13.6 8.7 19.9 7.2zM468.5 63.6c-.1 2.5-.2 4.4-.4 6.2-.4 5.2-2.6 9.7-6 13.6-3.8 4.3-7.7 8.6-11.7 12.7-6.4 6.5-13 12.8-19.4 19.3-1.9 1.9-3.6 4.1-5.2 6.3-1.3 1.9-2.3 4-3.1 6.2-3.1 7.8-8.1 14.1-15.2 18.6-1.5 1-3.2 1.8-5 2.4-4.8 1.7-9.3 1.1-13.4-1.9-4.2-3.1-7.6-7-11.3-10.7-4-3.9-8-7.9-12.3-11.4-2.4-2-5.3-3.5-8.2-4.9-7.2-3.5-12.4-8.8-14.4-16.7-2-7.8-.3-14.8 5.5-20.5 8.5-8.3 16.5-16.9 23.8-26.3 3.8-5 7.3-10.1 10.1-15.7 3.1-6.2 3.6-12.8 3.1-19.6-.2-3.4-.3-6.9-.4-10.3 0-1.5.2-3 .6-4.5 1-3.5 3.2-5.8 6.7-6.8 7.6-2.2 14.2-.3 19.9 5 1.2 1.1 2.4 2.4 3.3 3.8 7.6 10.9 17.7 18.8 29.5 24.7 2.2 1.1 4.4 2.2 6.7 3.2 9.1 4 14.1 11.2 15.8 20.8.7 2.3.8 4.8 1 6.5zm-1.9.7c-.2-2.3-.3-4.5-.7-6.7-1.6-9-6.1-15.9-14.6-19.7-2.3-1-4.5-2.1-6.7-3.2-12.2-6.1-22.6-14.2-30.4-25.4-1-1.4-2.1-2.6-3.3-3.7-5.1-4.6-11-6.3-17.7-4.4-2.8.8-4.7 2.7-5.5 5.5-.3 1.1-.5 2.4-.5 3.5 0 3.4.1 6.9.4 10.3.5 7.5 0 14.9-3.7 21.7-1.4 2.6-2.8 5.2-4.5 7.7-8.2 12.5-18.3 23.4-29 33.8-5.3 5.2-7.2 11.4-5.5 18.6 1.8 7.4 6.4 12.6 13.3 15.7 4.3 1.9 8.2 4.4 11.6 7.6 3.8 3.6 7.5 7.4 11.3 11.1 3.2 3.2 6.3 6.6 10.1 9.2 3.1 2.1 6.4 2.6 9.8 1.5 2.2-.7 4.4-1.6 6.3-2.9 6.5-4.2 11-10 13.7-17.1 1.3-3.6 3.2-6.8 5.6-9.7 1.9-2.2 3.9-4.5 5.9-6.6 6.7-6.7 13.5-13.1 20.1-19.9 3.5-3.5 6.6-7.4 9.7-11.2 1.9-2.4 3.2-5.2 3.6-8.3.3-2.4.5-4.9.7-7.4zm-137-150.5c5.2 0 9.5 1.5 13.2 4.2 6.3 4.5 13.3 7.5 20.5 10.4 3.3 1.3 6.6 2.8 9.8 4.4 6.6 3.4 11 8.7 12.2 16.2.5 2.9 1.1 5.8 1.4 8.7.1 1.1 0 2.2-.2 3.3-.3 1.7-1.3 3-2.9 3.5-3.4 1.2-7 1.6-10.6 1.4-3.1-.2-5.4-1.9-7-4.5-1.3-2.1-2.4-4.3-3.6-6.5l-3-5.7c-1.4-2.8-3.5-5-6.2-6.5-4.4-2.4-8.8-4.6-13.2-6.8-4.5-2.3-9.1-4.4-13.5-6.8-2.2-1.2-4.3-2.8-6.1-4.5-3.2-3.1-2.6-6.6 1.3-8.9 2.6-1.5 5.4-2 7.9-1.9zm-.1 1.9c-1.7-.1-3.9.3-5.9 1.3-3.8 1.8-4.2 4.3-1 7 1.8 1.5 3.7 2.8 5.7 3.9 3.7 2 7.6 3.8 11.3 5.7 4.4 2.2 8.9 4.4 13.3 6.7 4.1 2.1 7.2 5.3 9.2 9.5 1.2 2.5 2.4 5 3.8 7.5.8 1.5 1.8 3 2.9 4.4 1.6 2 3.9 2.7 6.4 2.5 1.8-.2 3.7-.4 5.5-.7 3.5-.6 4.6-1.7 4.3-5.3-.3-3.5-1-6.9-1.8-10.4-1-4.8-3.7-8.7-7.8-11.4-2.8-1.8-5.8-3.3-8.9-4.7-3.1-1.4-6.4-2.6-9.6-3.9-4.8-2-9.4-4.3-13.7-7.3-3.9-2.8-8.2-4.8-13.7-4.8zM-199.8 413c7.6.1 14 2 20.3 4.4 4.9 1.9 9.9 3.1 15.1 3.6 7.9.7 15.6-.2 23.3-2.3 11.9-3.2 22.7-8.6 32.8-15.4 4.3-2.9 8.7-5.4 13.8-6.6 5.9-1.4 11.5-.8 16.2 3.4 1 .9 2 1.9 2.7 3.1 1.5 2.5 3.7 4.2 6.1 5.6 3.5 1.9 7.1 3.6 10.6 5.5 2.8 1.5 5.6 3 8.3 4.8 1.7 1.1 3.2 2.4 4.6 3.9 3.6 3.6 4.5 8 3 12.8-1.4 4.9-4.1 9-7.7 12.5-3.5 3.4-7.3 6.5-11 9.7-3 2.6-6.1 5.2-9 8-2.2 2.1-3.6 4.6-4.5 7.6-1 3.3-3.1 5.8-6.1 7.4-2.6 1.3-5.4 2.3-8.2 3.3-2.5.9-5 1.5-7.5 2.4-4.7 1.5-8.6 4.1-11.9 7.8-3.5 3.9-7 7.9-10.8 11.6-4.7 4.8-10.2 8.3-17 9.3-4.8.7-9.6.1-14.3-1-7.5-1.7-13.6-5.6-18.2-11.6-2.8-3.6-5.4-7.4-7.7-11.3-2.9-4.9-6.8-8.4-12.1-10.5-2.6-1-5.2-2.1-7.8-3.2-6.5-2.8-10.6-7.6-13-14.3-1.9-5.3-4.3-10.3-6.4-15.5-1.3-3.3-2.6-6.7-3.6-10.2-1.2-4.5-.5-8.9 1.7-13 1.2-2.3 2.7-4.5 4.4-6.6 2.4-3.1 6-4.2 9.7-4.7 1.8-.5 3.4-.5 4.2-.5zm.6 2c-1.3 0-2.6-.1-3.8 0-3.5.4-6.8 1.3-9.1 4.3-1.6 2.1-3.1 4.4-4.4 6.9-1.7 3.4-2.2 7-1.3 10.7.6 2.3 1.3 4.6 2.1 6.8 2.8 6.9 5.7 13.7 8.5 20.6 2 4.9 5.3 8.6 10.1 10.8 3.1 1.4 6.3 2.7 9.5 4 5.3 2.2 9.3 5.7 12.2 10.7 2.5 4.2 5.3 8.4 8.5 12.2 8 9.5 18.7 12.4 30.7 11 5.5-.7 10.1-3.6 14-7.4s7.6-7.8 11.1-11.9c4.1-4.7 9-7.8 14.9-9.6 2-.6 4-1.1 6-1.8 2.6-.9 5.1-1.8 7.6-2.9 2.9-1.4 5-3.7 5.8-6.9.9-3.2 2.7-6 5.1-8.3 1.9-1.9 3.8-3.6 5.8-5.3 3.8-3.2 7.7-6.3 11.4-9.5 3.4-3 6.3-6.4 8.2-10.5 3.5-7.4 2.4-12.5-4.3-17.3-2.6-1.9-5.4-3.4-8.2-4.9-3.6-2-7.4-3.8-11.1-5.7-3.1-1.6-5.6-3.8-7.6-6.7-3.5-5-8.4-7-14.4-5.9-2.8.5-5.6 1.4-8.2 2.6-2.7 1.3-5.3 2.9-7.8 4.6-10.7 7.1-22 12.6-34.5 15.7-9 2.2-18 3-27.1 1.2-4-.8-8-2.2-11.9-3.5-5.8-2.3-11.6-4.1-17.8-4zm661.8 115.3c5.3.1 9.6 2.3 13 6.1 2.6 2.9 4.9 6.1 7.1 9.3 2 2.8 2 5.7.1 8.5-1 1.5-2 2.9-3 4.4-2.2 3.3-4.3 6.5-6.5 9.8-2.1 3.1-4.1 6.3-6.6 9.1-3.3 3.8-7.7 5-12.6 3.6-10.7-2.9-16.9-10.1-19.3-20.7-.6-2.9-.7-5.9-.2-8.8.7-3.6 2.2-6.7 4.8-9.2 4.9-4.7 10.3-8.6 16.9-10.7 2-.7 4.2-1 6.3-1.4zm0 1.9c-2.3.6-4.7.9-6.9 1.7-5.6 2.1-10.4 5.5-14.7 9.7-2.4 2.3-3.8 5.2-4.5 8.6-.5 2.5-.3 4.9.1 7.4 1.5 9.7 9 17.7 18.4 19.9 3.8.9 7 0 9.7-2.6 1.8-1.8 3.5-3.8 4.8-6 3.4-5.4 6.6-10.9 10.6-16 .3-.4.5-.8.8-1.2 1.8-2.4 1.8-4.9-.1-7.3-2-2.7-3.9-5.5-6.1-8-3.1-3.7-6.9-6.1-12.1-6.2zm157.9 26.5c-4.2.1-8.1-1-11.7-3-6.2-3.4-10.9-8.3-13.9-14.7-1.1-2.3-1.7-4.7-1.6-7.2.1-4.8 3.1-8.1 7.8-8.9 2.4-.4 4.8-.2 7.1.4 6.2 1.5 11.3 4.8 15.8 9.1 2.7 2.5 5.2 5.2 7.1 8.4 1.2 2.2 2.1 4.5 2.1 7 0 2.6-1.1 4.6-3.1 6.2-2.9 2.2-6.2 2.8-9.6 2.7zm0-1.9c2.3.1 4.5-.3 6.5-1.2 3.7-1.7 5.1-4.9 3.7-8.7-.6-1.7-1.5-3.4-2.6-4.8-3.8-5.2-8.6-9.5-14.3-12.5-3-1.6-6.1-2.6-9.6-2.8-7.8-.4-10.3 5.2-8.9 10.2 1.2 4.4 3.5 8 6.6 11.2 5.1 5.2 11.1 8.5 18.6 8.6zm-92.8-795.3c-.3 2.1-.4 4.3-1 6.3-1.3 4.3-4.5 6.8-9.1 6.8-6.8-.1-12.8-2.6-17.7-7.3-1.7-1.6-3.2-3.5-4.9-5.3-1.1-1.2-2.2-2.5-3.5-3.6-2.3-2-5-2.8-8-2.3-2.6.5-5.1.3-7.5-.7-1.2-.5-2.5-1.1-3.5-2-4.2-3.3-4.6-8.7-1-12.6 3.2-3.5 7.4-5.3 12-5.9 7.6-.9 15.3-1.5 22.9-.6 3.7.4 7.2 1.2 10.6 2.8 2.9 1.4 5.1 3.6 6.3 6.6 2.4 5.8 4.2 11.6 4.4 17.8zm-28.9-25.8c-5.4.4-10.1.8-14.7 1.2-3.9.4-7.4 1.9-10.4 4.5-4.2 3.7-3.6 8.9 1.3 11.7 2.5 1.4 5.1 1.8 7.9 1.3 2.7-.5 5.3-.3 7.6 1.2 1.7 1.1 3.2 2.4 4.6 3.8 1.6 1.6 3.1 3.5 4.6 5.2 4.4 4.8 9.9 7.5 16.3 8.2 4.5.5 7.8-1.7 9-6.1.3-1.1.4-2.4.5-3.5.3-6.3-1.5-12.1-3.8-17.9-1.2-3-3.2-5.1-6.1-6.4-1.5-.6-3-1.3-4.5-1.5-4.3-.8-8.7-1.3-12.3-1.7zM54 571c10.6.3 19.2 1.2 27.4 4 4.9 1.6 9.4 4 13 7.8 3.1 3.4 4.7 7.3 4.8 12 .1 2.8-1.1 4.9-3.4 6.2-2.1 1.2-4.4 2.4-6.7 3.1-7 2.2-14.1 4.1-21.1 6.2-5.3 1.6-10.4 3.5-15.2 6.3-3.3 1.9-6.3 4.2-8.7 7.1-2.4 2.8-5.4 4.9-8.9 5.8-12.1 3.2-23 .7-32.2-7.9-5.7-5.4-6.8-12.1-4-19.4 1.4-3.6 3.6-6.7 6.5-9.4 10.8-10.2 23.2-17.5 37.9-20.5 4-.8 8.3-1 10.6-1.3zm2.2 1.9c-4.9-.1-9.7.5-14.5 1.7-14 3.4-25.8 10.6-35.9 20.6-2.4 2.3-4.1 5.1-5.2 8.3-.9 2.4-1.4 4.9-1 7.5.6 4.1 2.5 7.4 5.5 10.1 6.6 5.9 14.5 8.2 23.2 7.8 6.2-.3 11.4-2.7 15.4-7.6 1.1-1.4 2.5-2.5 3.9-3.5 4.5-3.5 9.7-5.9 15.1-7.7 7.1-2.3 14.2-4.2 21.3-6.4 3.1-1 6.2-2 9.2-3.4 3.8-1.7 4.6-3.7 3.9-7.7-.7-4.6-3.2-8.1-6.8-10.9-3.4-2.5-7.2-4.2-11.2-5.4-7.5-2.3-15.2-3.1-22.9-3.4zm-287.8-242.3c-6.9 0-13.5-1.3-19.7-4.5-10.3-5.3-15.5-14.1-16.7-25.5-.2-1.6.1-3.4.5-5 1.1-4.1 4.8-6.1 8.9-5.2 1.9.4 3.6 1.3 5 2.6.7.7 1.5 1.4 2.1 2.3 4.9 7.2 12.2 10.4 20.4 11.7 3.7.6 7.5.4 11.2.6 1.5.1 3.1.2 4.4.7 4.3 1.6 6.3 6.2 5.1 11.1-1.1 4.5-4 7.4-8.2 9-4 1.7-8.4 2.2-13 2.2zm-1-1.9c5.4 0 9.6-.5 13.6-2 3.2-1.2 5.6-3.4 6.7-6.7 1.7-4.7-.4-10.7-7.6-10.4h-1.7c-4.3.2-8.6-.1-12.8-1.2-7.3-1.9-13.8-5-18.2-11.5-.5-.7-1-1.5-1.7-2-1.3-.9-2.6-1.9-4.1-2.4-3.2-1.1-6.2.5-7.1 3.8-.4 1.4-.7 3-.5 4.5 1.1 8.9 4.7 16.4 12.3 21.6 6.7 4.5 14.2 6.1 21.1 6.3z"/>
  <path class="st0" d="M253.2 9.4c0-4.8 1.2-9.3 3-13.7 1.7-4 4.8-5.4 8.9-4.1 4.3 1.3 7.6 4.1 10.4 7.4 1.7 2 3.1 4.3 4.3 6.6 1 1.7.9 3.6.2 5.6-1.4 3.5-2.9 6.9-5.3 9.9-1.1 1.4-2.4 2.8-3.9 3.9-3.2 2.4-6.9 2.5-10.3.2-4.4-3-6.7-7.2-7.3-12.4V9.4zm9.4-16.6c-2.2.3-3.5 1.2-4.4 3.4-2 4.8-3.2 9.7-2.9 14.9.2 3.8 1.3 7.2 3.8 10.1 4.5 5 9 4.9 13.3-.2 2.6-3 4.2-6.5 5.8-10.2.8-1.9.6-3.5-.3-5.3-2.6-4.9-6.4-8.8-11.3-11.4-1.3-.6-2.7-.8-4-1.3zm-379.7-42.1c11.3 0 22.5.2 33.8-.1 8.5-.2 16.9-1.1 25.1-3.6 3-.9 6-2.1 8.9-3.5 7.2-3.4 14.8-5.3 22.7-4.8 12.2.8 21 6.6 25.8 18 3 7.1 4.3 14.5 4.9 22.1.3 4.4.6 8.8 1.5 13.1C7-.6 11 5.2 17.1 9.4c4.6 3.2 9.6 5.7 14.9 7.7 8.6 3.2 17.3 6.1 26 9.2 5.3 1.9 10.6 3.7 15.4 6.7 2.3 1.4 4.5 3.1 6.4 5 3 2.9 4.1 6.6 3.1 10.8-.6 2.4-1.4 4.8-2.5 7-3.2 6.4-8.5 9-15.6 7.8-4.1-.7-8-2.1-11.8-3.9-9.3-4.3-18.5-8.7-27.8-12.9-8.8-4-17.8-7.5-27.3-9.6-7.1-1.5-14.2-2.1-21.4-.9-6.7 1.2-12.7 3.9-17.8 8.3-5.5 4.8-10.8 9.8-16.2 14.7-5.2 4.7-10.5 9.4-16.7 12.9-5.4 3-11.2 4.7-17.5 4.1-4.6-.4-8.9-1.8-12.9-4.1-7.8-4.3-14.6-9.8-20.4-16.5-4-4.5-6.8-9.6-7.7-15.7-.7-4.5-.3-8.9.5-13.4 1.1-5.8 2.4-11.6 3.3-17.4 1.3-8.2-.2-15.9-5-22.9-1.7-2.5-3.5-5-5.1-7.5-3-4.7-4-9.8-3.2-15.4.6-4 2.6-6.8 5.8-8.9 3.1-2 6.6-3 10.1-3.5 3.1-.4 6.2-.5 9.3-.7-.1.2-.1.3-.1.4zm15.3 2c0-.1 0-.1 0 0-3.3 0-6.6.1-9.8-.1-4.5-.2-8.9-.4-13.4.2-3.8.5-7.4 1.3-10.6 3.5-2.7 1.9-4.4 4.4-4.9 7.9-.6 5 .5 9.5 3.1 13.7 1.4 2.2 2.9 4.4 4.5 6.5 5.5 7.7 7.1 16.3 5.7 25.5-.9 5.9-2.2 11.8-3.3 17.7-2.1 10.5.5 19.6 7.7 27.5 5.6 6.1 12 11.3 19.2 15.3 3.9 2.1 8 3.5 12.5 3.9 6.4.5 12.1-1.6 17.5-4.9 4.7-2.8 8.8-6.3 12.9-10 6-5.5 12-11.1 18.1-16.4 7.4-6.4 16.3-9.3 26.1-9.4 6.5-.1 12.9 1 19.2 2.6 9.1 2.4 17.8 6.1 26.4 10C37.6 50.1 46 54.1 54.5 58c3.6 1.7 7.4 3 11.4 3.6 5.4.8 9.7-1.1 12.3-5.9 1.2-2.2 2.1-4.7 2.8-7.1 1-3.7 0-7-2.7-9.7-1.8-1.7-3.9-3.4-6.1-4.6-3.9-2-7.9-3.8-12-5.3-8.6-3.2-17.4-6-26-9.1-6-2.2-11.8-4.8-17.2-8.4C9.8 7 5.3.6 3.7-7.6c-.8-4.2-1.1-8.4-1.4-12.6-.5-7.4-1.8-14.6-4.5-21.5-4.5-11.6-14-17.2-25.6-17.6-7.5-.2-14.5 1.8-21.3 5-2.7 1.3-5.6 2.4-8.5 3.3-8.4 2.6-17.1 3.4-25.8 3.7-6.1.1-12.3 0-18.4 0zm594.1 417.9c4.9.3 9.4 1.3 13.4 4.2 6.4 4.6 8.9 13.8 5.7 21-1.7 3.7-4.6 5.7-8.7 5.6-2 0-4.1-.5-6.1-1.1-2.6-.7-5.1-1.9-7.7-2.5-2.1-.5-4.4-.6-6.6-.6-2.5.1-5.1.7-7.6.6-2.8 0-5.6-.2-8.3-.9-3.6-.9-4.9-3.6-3.8-7.2.3-1.1.7-2.2 1.4-3 5.4-6.9 11.9-12.2 20.5-14.8 2.4-.6 5.2-.8 7.8-1.3zm.7 1.9c-2.5.4-4.6.5-6.6 1-8.8 2.2-15.4 7.5-20.9 14.4-.6.8-1 1.8-1.3 2.8-.6 2 0 3.4 2 4.3 1.2.5 2.4.9 3.7.9 3.2.1 6.4.2 9.5-.2 5-.7 9.7-.1 14.3 1.7 2.2.8 4.5 1.6 6.9 2 4.8 1 8-1.1 9.5-5.8 2.5-7.8-1.6-16.5-9.4-19.3-2.5-.9-5.3-1.3-7.7-1.8zM447.3 62.7c.2 6.2-2.9 12.3-8.3 17.1-3.8 3.4-7.9 6.4-11.9 9.7-2.4 2-4.9 3.9-7.1 6.1-1.8 1.8-3.3 3.9-4.6 6.1-5.4 8.6-13 13.6-23.2 14.1-7.6.4-13.7-3.1-18.7-8.6-4.7-5.1-5.3-11.1-3.7-17.4 1.6-6.2 5.3-11.1 9.9-15.3 6.1-5.5 10.9-11.9 15.1-18.8 1.4-2.4 2.9-4.8 4.5-7.1 1.2-1.7 2.5-3.3 3.9-4.8 3.7-3.8 8.3-5.2 13.6-4.6 6.2.6 12.3 2.1 18 4.6 1.5.7 3 1.5 4.4 2.4 5.5 3.5 8.2 8.7 8.1 16.5zm-1.9.2c.2-7.2-2.2-11.9-7.3-15.3-1.8-1.2-3.8-2.1-5.7-3-4.4-1.8-9-2.8-13.7-3.6-7.1-1.2-12.7 1.2-16.8 7.1-.7 1-1.5 2.1-2.2 3.2l-4.8 7.8c-3.6 5.9-7.9 11.2-13 15.9-4.2 3.8-7.7 8.1-9.7 13.5-2.5 6.8-1.7 13 3.7 18.3 4.5 4.5 9.8 7.4 16.2 7 9.5-.5 16.7-5.1 21.5-13.2 1.7-2.8 3.5-5.4 6-7.4 3.2-2.7 6.6-5.3 9.9-8 2.6-2.1 5.3-4.1 7.8-6.4 5-4.5 8.2-9.9 8.1-15.9zm-590.5 417.8c-8-.1-18.2-1.8-27.8-6.7-5.3-2.8-10-6.3-13.3-11.4-4.7-7.2-5.1-14.7-1.1-22.3 3.5-6.6 8.7-9.3 16.1-8.1 4.6.8 9.2 2 13.8 2.8 3.6.7 7.2 1.3 10.9 1.7 8.4 1 16.2-1.3 23.6-5 3.3-1.7 6.5-3.8 9.5-6 3.5-2.5 7-4.8 11.2-5.9 1.8-.5 3.8-.8 5.7-.8 6-.1 10 3.2 11.3 9 1.1 4.8.6 9.6-.8 14.2-5.5 18.1-17.6 29.9-35.5 35.7-6.8 2.1-13.8 2.8-23.6 2.8zm2.8-1.9c2.1-.1 4.1-.2 6.2-.3 8.2-.5 16.1-2.5 23.4-6.4 13.2-7.2 21.9-17.9 25.4-32.6.9-3.7 1.1-7.4.2-11.2-1.1-4.4-3.9-7.1-8-7.4-1.4-.1-2.9 0-4.3.2-4.8.8-8.8 3.2-12.6 6.1-2.4 1.8-4.8 3.5-7.4 4.9-7.6 4.1-15.6 7-24.4 6.7-4.7-.2-9.4-.9-14-1.8-4.8-1-9.5-2.2-14.3-2.9-5.6-.9-10 1.2-12.9 6.2-4.4 7.5-4 15.3 1.3 22.4 3.5 4.7 8.2 8 13.5 10.5 8.8 4 18.2 5.5 27.9 5.6zM52 600.2c-3.4 0-5-1.6-4.6-4.7.1-.8.3-1.6.6-2.3 3.2-6.9 8.3-11.4 16.1-11.8 4.2-.3 8.2 1.2 11.4 4.2 2.2 2 3.2 4.6 2.6 7.6-.5 2.7-2.9 4.7-5.3 4.1-4.9-1.3-9.5 0-14.1 1.3-1.8.5-3.5 1-5.3 1.5-.6 0-1.2 0-1.4.1zm12.5-17c-.1 0-.4 0-.7.1-6.8.7-11.1 4.7-14 10.6-.2.4-.3.9-.4 1.4-.5 2.2.4 3.2 2.7 3 1.3-.1 2.7-.5 4-.9 1.8-.5 3.5-1.2 5.3-1.6 3.7-.9 7.3-1.7 11.1-.6 2 .6 3.7-1 3.9-2.9.2-2-.5-3.6-1.8-5-2.8-2.7-6.2-3.8-10.1-4.1z"/>
  <path class="st0" d="M-60.4 22.3c.9 5.6-.4 9.8-2.5 13.8-3.3 6.6-7.9 12-14.4 15.7-6.1 3.5-12.5 4.2-19.1 1.6-6.4-2.5-9.8-7.4-10.8-14.1-.6-3.7-.2-7.4.7-10.9 1.4-5.6 1.2-11.1-.5-16.5-1.1-3.4-2.3-6.8-3.3-10.3-1.3-4.3-2.3-8.7-1.1-13.2.5-2 1.2-4 2.1-5.8 1.8-3.4 4.3-6.4 7-9.1 4.5-4.5 9.9-6 16-5.1 2.1.3 4.1.5 6.2.7 6.1.5 12.1-.7 17.7-3.1 3.2-1.4 6.3-2.8 9.4-4.2 11.1-5 22.2-.9 28.6 8.5 4.8 7.1 7.2 14.9 6.8 23.5-.4 10.3-8 18.3-18.3 19.5-4.8.6-9.6 0-14.3-.7-1.6-.2-3.2-.3-4.8-.3-2.4.1-4.1 1.5-4.7 3.8-.5 2.3-.5 4.7-.7 6.2zm-1.8.5c.1-1.6 0-3.4.3-5.2.6-4.6 3.2-7 7.8-7.2 1.5-.1 3 .1 4.5.4 4.2.6 8.4 1.1 12.6.7 9.5-.8 16.4-7.7 17.4-15.8 1.2-10.2-1.9-19.1-8.4-26.9-2.2-2.7-5-4.6-8.3-5.9-4.9-1.8-9.7-1.8-14.5.1-3.3 1.4-6.6 2.9-9.9 4.4-5 2.2-10.1 3.7-15.5 3.6-3.7 0-7.3-.4-11-.8-5.1-.6-9.5.7-13.3 4.2-3 2.8-5.6 5.9-7.4 9.6-.8 1.6-1.3 3.3-1.7 5-1.1 4.3 0 8.4 1.3 12.5 1.1 3.4 2.3 6.8 3.3 10.3 1.7 5.6 1.8 11.3.4 17.1-.5 2.2-.9 4.6-.9 6.9-.1 10.9 6.5 17 16.9 17.4 4.9.2 9.2-1.8 13.1-4.7 4.5-3.3 8-7.6 10.6-12.5 2.1-4.1 3.6-8.3 2.7-13.2zM-149 463.1c-1.7-.3-3.3-.3-4.9-.8-4.8-1.3-6-5.8-2.6-9.4 2.8-3 6.4-4.1 10.3-4.7 4.3-.6 8.6-1 12.9-1.5 3.2-.3 6.4-.7 9.5-.9 1-.1 2.1.1 3.1.4 1.6.5 2.3 1.8 1.9 3.4-.4 1.7-1.2 3.2-2.7 4.1-2.6 1.6-5.1 3.2-7.9 4.5-6.4 3-14.3 4.8-19.6 4.9zm-1-1.9c6.1-.3 11.2-1.5 16.2-3.3 3.5-1.3 7-2.7 10.1-5 .9-.7 1.8-1.6 2.4-2.6.9-1.4.5-2.3-1.2-2.5-1.3-.2-2.7-.1-4.1 0-5.5.6-11 1.1-16.4 1.8-2.7.4-5.3 1-7.9 1.8-1.9.6-3.6 1.8-4.8 3.4-1.6 2.2-1.2 4.2 1.4 5.2 1.6.8 3.4 1 4.3 1.2z"/>
  <path class="st0" d="M-53.3 1.8C-59.1 1.8-64-2.1-65.2-8c-.8-3.5-.5-7 .9-10.4 1.7-4.2 5.1-6.3 9.6-6.1 6.3.3 12.5 5.3 13.5 11.3 1.3 8.3-5.4 15.4-12.1 15zm-10.4-13.9c-.1 4.6 1.5 7.9 4.9 10.3 3.7 2.6 8.5 2.2 12-.8 3.6-3.1 5-8.7 2.9-12.6-2.3-4.5-6.2-7-11.3-7.3-3.2-.2-5.5 1.3-7 4.2-1.1 2-1.5 4.3-1.5 6.2z"/>
</svg>
